<?xml version="1.0" encoding="UTF-8"?><svg id="Layer_2" xmlns="http://www.w3.org/2000/svg" xmlns:xlink="http://www.w3.org/1999/xlink" viewBox="0 0 56.56 54.4">

<defs>
<style>.cls-1{fill:url(#linear-gradient);}.cls-1,.cls-2{isolation:isolate;opacity:.4;}.cls-3{fill:#fff;}.cls-4{fill:url(#radial-gradient);}.cls-5{fill:url(#radial-gradient-2);}</style>

<radialGradient id="radial-gradient" cx="8.53" cy="984.64" fx="8.53" fy="984.64" r="47.78" gradientTransform="translate(0 -976.2)" gradientUnits="userSpaceOnUse">
    <stop offset="0" stop-color="#00aeff"/>
    <stop offset=".13" stop-color="#00a5f7"/>
    <stop offset=".34" stop-color="#008de0"/>
    <stop offset=".62" stop-color="#0065ba"/>
    <stop offset=".93" stop-color="#002f87"/>
    <stop offset="1" stop-color="#00217a"/>
</radialGradient>

<linearGradient id="linear-gradient" x1="16.1" y1="983.35" x2="54.06" y2="983.35" gradientTransform="translate(0 -976.2)" gradientUnits="userSpaceOnUse">
    <stop offset="0" stop-color="#fff"/>
    <stop offset="1" stop-color="#fff" stop-opacity="0"/>
</linearGradient>

<radialGradient id="radial-gradient-2" cx="7.03" cy="982.3" fx="7.03" fy="982.3" r="8.29" gradientTransform="translate(0 -976.2)" gradientUnits="userSpaceOnUse">
    <stop offset="0" stop-color="#fff"/>
    <stop offset=".68" stop-color="#7a7a7a"/>
    <stop offset="1" stop-color="#404040"/>
</radialGradient>
</defs>

<g id="Layer_1-2"><path id="path5" class="cls-3" d="m26.6,19.5s1.3.1,2.4,1.5l-.6.1-.3-.1s-.9-1.1-1.5-1.5Zm-2,6.2l-.6-1.5h-.2l-1,1.2c.7.6,1.8.3,1.8.3Zm9.2-8.8l-.5.2.6,1.1,2,.7c-.8-1.7-2.1-2-2.1-2Zm-5.7,2.1c.6.7,1.2,1.7,1.2,1.7,1-1,3.1-1.4,5.8-1.3-3.8-.8-7-.4-7-.4Zm-3.7-1.5s1.1,0,2.6.3c-1-.7-2.6-1.1-2.6-1.1v.8Zm9.2,5.5l-1.7,1.5,1.3.4,1.3-1.4-.7-.3-.2-.2h0Zm-11.3-7.9s.7.4.8.4,1.5.5,2.1.7c.5.2.8,0,.9,0s1.8-1,1.8-1c-1.5-.6-2.9-1-2.9-1-.1,0-2.7.9-2.7.9Zm10.2.9c-.1-.2-.3-.2-1.5-.4-1.1-.1-2.1-.2-2.3-.2s-.3.1-.3.1c0,0-.6.4-1.1.7s-.6.4-.7.6c-.1.1.2.5.2.5l.8,1c.1,0,.4.2.4.2,0,0,1.6-.1,2.6-.2h2.6c.1,0,0-.4-.2-.9-.2-.4-.5-1.4-.5-1.4Zm-9.5,1.1s.1,0,.3.1c.2,0,.3-.2.3-.4,0-.3-.3-.4-.3-.4h-.2l-.3.1-.1.7h.1l.2-.1c-.1-.2-.1-.3-.1-.5,0-.1.2-.3.3-.3,0,0,.2,0,.1.4,0,.4-.3.4-.3.4Zm16.9,7.9l-.8,1.1v.1h1.1c.2-.7-.3-1.2-.3-1.2Zm-20-5.2h-.2l-.5-.1c-.5-.1-.3-1-.3-1l-.6.2c-.2-.4-1.1-1.5-1.1-1.5l-.2.8c.1.1.6.9.7,1.1l-.3.3s-.1.2-.1.3-.1.2-.1.2l-.4.2h-.1l-1.4-1.1v.8h.1c.1.2.3.6.8.8.4.2.9.2,1.1.1.2.1.3.1.4.2.4.2.5.1.5.1l.6-.2h.1l.1-.1.2-.4s1,.1,1.4.1c.4-.6,1.7-1.5,2.6-1.6.9,0,2.4.2,3.6,1.4,1.1,1.2.8,2.8.8,2.8l2.2.7-1-.7c-.8-2-2.7-3.8-2.7-3.8,0,0-.5-.1-.8-.1-.3-.1-.5-.3-.5-.3,0,0-.1-.1-.3-.4l-.2-.4s-.2-.2-.5-.4-1.4-.3-2-.4c-.6-.1-.6,0-.6,0,1.7.4,2.2.5,2.3.6,0,0,.1.2.2.3-1.4-.3-2.7-.1-3,0,.2.3.2.7,0,1-.2.2-.8.5-.8.5Zm19,7.2l.3,1.3s.3-.3.6-.7.4-.8.4-.8l-1.2.1s-.1.1-.1.1Zm-24.1-9.1l-.1,1.1h.6l.1-.7v.4h.1v-.6h-.1v-.4l.9.5.1.2.2.2h.2l.1-.1v-.1c-.6,0-.6-.3-.6-.3,0,0,.1-.7.2-.9s.5-.1.5-.1l-.1-.1h-.2c-.2-.1-.8-.5-1-.6v-.1l.1-.1v-.4h.1c0-.1.1-.1.1-.2.2,0,1.7-.3,1.7-.3l-1.4-.3v-.1c-.4-.1-.7-.2-.9-.3-.5.6-.7,1.4-.7,1.4,0,0-.1,1.4-.1,1.6-.1.2.2.3.2.3h0Zm23.5,7.9l.2.3.1-.1.8-1v-.1c-.4,0-1.1.9-1.1.9Zm-2.4-1.8l-.6-.2-1.4,1.6,1,.3c.2-.8,1-1.7,1-1.7Zm2.1,2.3c-.5,1-.4,1.7-.4,1.7l.5-1.1v-.2c.1,0,0-.2-.1-.4Zm-.5-6.5s-.2.4-.3.5c-.1.1-.8.2-1.2.3-.4.2-1.1.5-1.3.7-.1.1-.1.4-.1.5,0,0,.2.1.3.1l-.9.8.2.2,2.2.7c.5-.4,1.2-.5,1.2-.5-.4-.2-2.1-.9-2.6-1.1,0,0-.3-.1-.3-.2v-.3s1.3-1,3.3-1l.3-.6s-.8-.1-.8-.1Zm1.3,8.8l-.4-1.2h-.1l-.6,1.1.1.1c.5.2,1,0,1,0Zm-15.1-11.4l.3.1s.2,0,.2-.2v-.4l-.3-.2-.4-.1c.1.1.1.2.1.2h.1c0-.1.1-.1.1,0,0,0,.2.1.1.4.1.1-.1.2-.2.2Zm-.9,5.5c-.7,1.3-.2,2.2-.2,2.2l.9-1.3v-.2s-.7-.7-.7-.7Zm-6.5-7.7l1.2.3c.1,0,.8-.1.8-.1l-1.9-.5-.1.3Zm.7-.3c1.6.2,1.9.5,1.9.5,0,0,.6-.1.9-.1-.5-.4-2.7-1.1-2.7-1.1,0,0-.1.3-.1.7Zm2.4,3.1c-.3.2-.6.8-.5,1.3s.2.5.5.5c-.5-.2-.4-1,0-1.5.3-.4.6-.1.6-.1,0,0-.3-.4-.6-.2Zm-7.1,14.8c-1.3,0-2.8.5-1.9,1.9,7.4,12.7,15.2,15.7,18.5,17.3,1.5-.7,3.9-1.8,6.8-3.8,1.7-1.1,1.5-2.8,1.1-3.9-2.1-5.2-13.6-11.1-24.5-11.5ZM54,8.9c-3-2.1-10.4-5.9-25.1-5.9-5.1,0-9.4.5-12.8,1.2.8,1.3,1.2,2.8,1.2,4.4,0,2.2-.8,4.2-2.1,5.7.3.1.7.2,1.2.3l.2-.5s.2,0,.3.1c0-.5.3-.5.3-.5,0,0,0-.1.1-.1.5.1,1.9.8,2.5,1.1s.6.4.6.4c0,0,1.4,0,1.8-.1.4,0,1.1-.3,2.1-.6s1.2-.4,1.4-.4,2,.1,3.6.3,3.1.8,3.4,1l.5.1.1-.3-.8-.3s.1-.5.1-.6.1-.2.2-.2,1,.2,1.3.3,1.3.8,1.4.8.1.1.1.1c0,.2-.2.6-.2.6l-.3-.1.3.1s.3.1.4.2c.1.1.4.3.7.6.3.2.2.5.2.5l.7.7v.3l1.7,1.7v.1l-.8.5s1.1-.1,1.9.3c.8.4.9.6.9.8-.2.1-.5.2-.5.2-.6.2-2.1,1.2-2.1,1.2v.1l.8.2c.9-.8,2.5-1.1,3.7-.9,4.1.8,6.9,3.5,7.5,5.8,0,.1.1.3.1.4,4.1-9.6,3.7-16.5,3.4-19.6h0Zm-14.4,14.6c.1.1.2.1.3.2.6.4.9.6,1,1.5.1.7-.1,1.7-.6,2.6,2.8,1.9,6.7.4,8.2,1.9-.3-3.8-5.9-7.6-8.9-6.2Zm-23-4.9l-.2.1v.8l.2-.1v-.8Zm28.9,12.4c-2.1,0-4.2-.7-5.7-2.5v.1c-.9,1.2-1.9,1.2-2.3,1.2s-1.7-.6-2.2-1.2c-.5-.6-.5-1.7-.5-1.7l-2-.7-2.5-1.4-.4-.1c-.8.4-1.8.1-2.7-.6-.1.4-.6,1.4-1.2,1.9s-1.8,1.2-2.7,1.2-2.9-1-3.5-2.4,0-2.9,0-2.9l-1-.2-.4-.5s-1.2,1-2.5.6-2.4-1.5-2.7-2.5c-.2-1,.1-1.9.2-2-.2-.7-.2-1.1-.2-1.1h-.1v-.3c-1.3.9-2.8,1.3-4.4,1.3-1.8,0-3.5-.6-4.9-1.5.2,2.2.8,4.8,1.6,7.7,1.1,4,4.7,5.3,10.1,6.2,11.9,1.9,23.3,11,22.5,16.6,3-2.5,6.2-6.2,9.4-11.7,1.3-2.1.1-3.5-1.9-3.5Zm-31.8-13.8l-.1,1.1h.7v-.1h-.1v-.1h-.1l.1-.2.1-.5-.1-.1v-.2l.1-.1.1-1.2-.5-.3c.2-.8.7-1.5.7-1.5h-.3c-.5.6-.7,1.4-.7,1.4,0,0-.1,1.3-.1,1.5,0,.3.2.3.2.3Zm11,6.7l.5,1.6c1-.7,1.2-1.8,1.2-1.8l-1.6.1s-.1.1-.1.1Zm.9-2.5l-.8,1.4.1.1,1.6.1c0-1.1-.9-1.6-.9-1.6Zm-10-3.1l-.1.6h.1s0-.6,0-.6Zm7.6,3.8l.8.6.2-.1.9-1.4c-1.1-.1-1.9.9-1.9.9Zm-7.4-3.7l-.1-.1v.7h.1v-.6Zm.3.2l-.1.7h.1v-.7Zm.2.1l-.1.7h.1v-.7Zm-.4-.2l-.1.7h.1v-.7Z"/><g id="Symbol"><path id="path9" class="cls-3" d="m56.4,8.7l-.1-1.1-1-.7c-4.2-2.9-12.2-6.3-26.5-6.3-5.4,0-10.3.5-14.6,1.5-1.5-1.3-3.5-2.1-5.6-2.1C3.9,0,0,3.8,0,8.6c0,1.5.4,2.9,1.1,4.2.2,7.4,2.5,15.1,7,22.9,7.4,12.5,15.3,16.2,19.1,17.9.3.1.5.2.7.3l1,.5,1-.5c.2-.1.5-.2.7-.3,3.9-1.7,11.7-5.4,18.9-17.9,7.9-13.7,7.2-23.7,6.9-27h0Z"/><path id="path24" class="cls-4" d="m26.6,19.5s1.3.1,2.4,1.5l-.6.1-.3-.1s-.9-1.1-1.5-1.5Zm-2,6.2l-.6-1.5h-.2l-1,1.2c.7.6,1.8.3,1.8.3Zm9.2-8.8l-.5.2.6,1.1,2,.7c-.8-1.7-2.1-2-2.1-2Zm-5.7,2.1c.6.7,1.2,1.7,1.2,1.7,1-1,3.1-1.4,5.8-1.3-3.8-.8-7-.4-7-.4Zm-3.7-1.5s1.1,0,2.6.3c-1-.7-2.6-1.1-2.6-1.1v.8Zm9.2,5.5l-1.7,1.5,1.3.4,1.3-1.4-.7-.3-.2-.2h0Zm-11.3-7.9s.7.4.8.4,1.5.5,2.1.7c.5.2.8,0,.9,0s1.8-1,1.8-1c-1.5-.6-2.9-1-2.9-1-.1,0-2.7.9-2.7.9Zm10.2.9c-.1-.2-.3-.2-1.5-.4-1.1-.1-2.1-.2-2.3-.2s-.3.1-.3.1c0,0-.6.4-1.1.7s-.6.4-.7.6c-.1.1.2.5.2.5l.8,1c.1,0,.4.2.4.2,0,0,1.6-.1,2.6-.2h2.6c.1,0,0-.4-.2-.9-.2-.4-.5-1.4-.5-1.4Zm-9.5,1.1s.1,0,.3.1c.2,0,.3-.2.3-.4,0-.3-.3-.4-.3-.4h-.2l-.3.1-.1.7h.1l.2-.1c-.1-.2-.1-.3-.1-.5,0-.1.2-.3.3-.3,0,0,.2,0,.1.4,0,.4-.3.4-.3.4Zm16.9,7.9l-.8,1.1v.1h1.1c.2-.7-.3-1.2-.3-1.2Zm-20-5.2h-.2l-.5-.1c-.5-.1-.3-1-.3-1l-.6.2c-.2-.4-1.1-1.5-1.1-1.5l-.2.8c.1.1.6.9.7,1.1l-.3.3s-.1.2-.1.3-.1.2-.1.2l-.4.2h-.1l-1.4-1.1v.8h.1c.1.2.3.6.8.8.4.2.9.2,1.1.1.2.1.3.1.4.2.4.2.5.1.5.1l.6-.2h.1l.1-.1.2-.4s1,.1,1.4.1c.4-.6,1.7-1.5,2.6-1.6.9,0,2.4.2,3.6,1.4,1.1,1.2.8,2.8.8,2.8l2.2.7-1-.7c-.8-2-2.7-3.8-2.7-3.8,0,0-.5-.1-.8-.1-.3-.1-.5-.3-.5-.3,0,0-.1-.1-.3-.4l-.2-.4s-.2-.2-.5-.4-1.4-.3-2-.4c-.6-.1-.6,0-.6,0,1.7.4,2.2.5,2.3.6,0,0,.1.2.2.3-1.4-.3-2.7-.1-3,0,.2.3.2.7,0,1-.2.2-.8.5-.8.5Zm19,7.2l.3,1.3s.3-.3.6-.7.4-.8.4-.8l-1.2.1s-.1.1-.1.1Zm-24.1-9.1l-.1,1.1h.6l.1-.7v.4h.1v-.6h-.1v-.4l.9.5.1.2.2.2h.2l.1-.1v-.1c-.6,0-.6-.3-.6-.3,0,0,.1-.7.2-.9s.5-.1.5-.1l-.1-.1h-.2c-.2-.1-.8-.5-1-.6v-.1l.1-.1v-.4h.1c0-.1.1-.1.1-.2.2,0,1.7-.3,1.7-.3l-1.4-.3v-.1c-.4-.1-.7-.2-.9-.3-.5.6-.7,1.4-.7,1.4,0,0-.1,1.4-.1,1.6-.1.2.2.3.2.3h0Zm23.5,7.9l.2.3.1-.1.8-1v-.1c-.4,0-1.1.9-1.1.9Zm-2.4-1.8l-.6-.2-1.4,1.6,1,.3c.2-.8,1-1.7,1-1.7Zm2.1,2.3c-.5,1-.4,1.7-.4,1.7l.5-1.1v-.2c.1,0,0-.2-.1-.4Zm-.5-6.5s-.2.4-.3.5c-.1.1-.8.2-1.2.3-.4.2-1.1.5-1.3.7-.1.1-.1.4-.1.5,0,0,.2.1.3.1l-.9.8.2.2,2.2.7c.5-.4,1.2-.5,1.2-.5-.4-.2-2.1-.9-2.6-1.1,0,0-.3-.1-.3-.2v-.3s1.3-1,3.3-1l.3-.6s-.8-.1-.8-.1Zm1.3,8.8l-.4-1.2h-.1l-.6,1.1.1.1c.5.2,1,0,1,0Zm-15.1-11.4l.3.1s.2,0,.2-.2v-.4l-.3-.2-.4-.1c.1.1.1.2.1.2h.1c0-.1.1-.1.1,0,0,0,.2.1.1.4.1.1-.1.2-.2.2Zm-.9,5.5c-.7,1.3-.2,2.2-.2,2.2l.9-1.3v-.2s-.7-.7-.7-.7Zm-6.5-7.7l1.2.3c.1,0,.8-.1.8-.1l-1.9-.5-.1.3Zm.7-.3c1.6.2,1.9.5,1.9.5,0,0,.6-.1.9-.1-.5-.4-2.7-1.1-2.7-1.1,0,0-.1.3-.1.7Zm2.4,3.1c-.3.2-.6.8-.5,1.3s.2.5.5.5c-.5-.2-.4-1,0-1.5.3-.4.6-.1.6-.1,0,0-.3-.4-.6-.2Zm-7.1,14.8c-1.3,0-2.8.5-1.9,1.9,7.4,12.7,15.2,15.7,18.5,17.3,1.5-.7,3.9-1.8,6.8-3.8,1.7-1.1,1.5-2.8,1.1-3.9-2.1-5.2-13.6-11.1-24.5-11.5ZM54,8.9c-3-2.1-10.4-5.9-25.1-5.9-5.1,0-9.4.5-12.8,1.2.8,1.3,1.2,2.8,1.2,4.4,0,2.2-.8,4.2-2.1,5.7.3.1.7.2,1.2.3l.2-.5s.2,0,.3.1c0-.5.3-.5.3-.5,0,0,0-.1.1-.1.5.1,1.9.8,2.5,1.1s.6.4.6.4c0,0,1.4,0,1.8-.1.4,0,1.1-.3,2.1-.6s1.2-.4,1.4-.4,2,.1,3.6.3,3.1.8,3.4,1l.5.1.1-.3-.8-.3s.1-.5.1-.6.1-.2.2-.2,1,.2,1.3.3,1.3.8,1.4.8.1.1.1.1c0,.2-.2.6-.2.6l-.3-.1.3.1s.3.1.4.2c.1.1.4.3.7.6.3.2.2.5.2.5l.7.7v.3l1.7,1.7v.1l-.8.5s1.1-.1,1.9.3c.8.4.9.6.9.8-.2.1-.5.2-.5.2-.6.2-2.1,1.2-2.1,1.2v.1l.8.2c.9-.8,2.5-1.1,3.7-.9,4.1.8,6.9,3.5,7.5,5.8,0,.1.1.3.1.4,4.1-9.6,3.7-16.5,3.4-19.6h0Zm-14.4,14.6c.1.1.2.1.3.2.6.4.9.6,1,1.5.1.7-.1,1.7-.6,2.6,2.8,1.9,6.7.4,8.2,1.9-.3-3.8-5.9-7.6-8.9-6.2Zm-23-4.9l-.2.1v.8l.2-.1v-.8Zm28.9,12.4c-2.1,0-4.2-.7-5.7-2.5v.1c-.9,1.2-1.9,1.2-2.3,1.2s-1.7-.6-2.2-1.2c-.5-.6-.5-1.7-.5-1.7l-2-.7-2.5-1.4-.4-.1c-.8.4-1.8.1-2.7-.6-.1.4-.6,1.4-1.2,1.9s-1.8,1.2-2.7,1.2-2.9-1-3.5-2.4,0-2.9,0-2.9l-1-.2-.4-.5s-1.2,1-2.5.6-2.4-1.5-2.7-2.5c-.2-1,.1-1.9.2-2-.2-.7-.2-1.1-.2-1.1h-.1v-.3c-1.3.9-2.8,1.3-4.4,1.3-1.8,0-3.5-.6-4.9-1.5.2,2.2.8,4.8,1.6,7.7,1.1,4,4.7,5.3,10.1,6.2,11.9,1.9,23.3,11,22.5,16.6,3-2.5,6.2-6.2,9.4-11.7,1.3-2.1.1-3.5-1.9-3.5Zm-31.8-13.8l-.1,1.1h.7v-.1h-.1v-.1h-.1l.1-.2.1-.5-.1-.1v-.2l.1-.1.1-1.2-.5-.3c.2-.8.7-1.5.7-1.5h-.3c-.5.6-.7,1.4-.7,1.4,0,0-.1,1.3-.1,1.5,0,.3.2.3.2.3Zm11,6.7l.5,1.6c1-.7,1.2-1.8,1.2-1.8l-1.6.1s-.1.1-.1.1Zm.9-2.5l-.8,1.4.1.1,1.6.1c0-1.1-.9-1.6-.9-1.6Zm-10-3.1l-.1.6h.1s0-.6,0-.6Zm7.6,3.8l.8.6.2-.1.9-1.4c-1.1-.1-1.9.9-1.9.9Zm-7.4-3.7l-.1-.1v.7h.1v-.6Zm.3.2l-.1.7h.1v-.7Zm.2.1l-.1.7h.1v-.7Zm-.4-.2l-.1.7h.1v-.7Z"/><path id="path26" class="cls-2" d="m54,8.9c.3,3.7.8,12.8-6.6,25.6-7.3,12.7-15.2,15.7-18.5,17.3v-1.9c6.1-3.3,11.4-8.6,15.6-17,4.9-9.7,5.5-17.6,5.1-21.6l4.4-2.4Z"/><path id="path33" class="cls-1" d="m54,8.9c-3-2.1-10.4-5.9-25.1-5.9-5.1,0-9.4.5-12.8,1.2.7,1.1,1.1,2.4,1.2,3.8,3.8-.7,7.9-1.1,12.3-1,9.4.1,17,2.2,20.1,4.3l4.3-2.4"/><circle id="circle42" class="cls-5" cx="8.7" cy="8.6" r="6.2"/></g></g></svg>