<svg xmlns="http://www.w3.org/2000/svg" viewBox="0 0 338.67 160.17"><title>center</title><path d="M0,133v1.91a1.91,1.91,0,0,0,1.63,1.89L158,160.13a3.6,3.6,0,0,0,4.13-3.44l3.22-99L112,104.33h32.67L140,133Zm338.67,0h-140L194,104.33h32.67L173.33,57.67l3.23,99a3.6,3.6,0,0,0,4.13,3.44L337,136.8a1.91,1.91,0,0,0,1.63-1.89ZM244.56,0a22.17,22.17,0,0,1,21.93,18.9l10.28,68.68A9,9,0,0,1,268.93,98a8.82,8.82,0,0,1-9.59-7.65L250.92,25a14.08,14.08,0,0,0-14-12.28H101.71A14.07,14.07,0,0,0,87.75,25L79.37,90a9,9,0,0,1-8.45,8,8.82,8.82,0,0,1-9.07-10.12l10.32-69A22.19,22.19,0,0,1,94.11,0Z"/></svg>