<svg xmlns="http://www.w3.org/2000/svg" viewBox="0 0 336 336"><title>long-goal</title><path d="M149,168a19,19,0,1,1,19,19A19,19,0,0,1,149,168Zm102,32.1a8.15,8.15,0,0,0,8.85,7.06,8.28,8.28,0,0,0,7.23-9.57l-1.55-10.39a3.75,3.75,0,0,0-3.71-3.2h-8.62a3.76,3.76,0,0,0-3.73,4.23Zm-173.8,7.09A8.34,8.34,0,0,0,85,199.81l1.5-11.58A3.76,3.76,0,0,0,82.78,184H74.16a3.75,3.75,0,0,0-3.71,3.2l-1.59,10.66A8.13,8.13,0,0,0,77.22,207.19ZM237.39,116.8H98.61a20.45,20.45,0,0,0-20.23,17.43l-2,13.46A3.75,3.75,0,0,0,80.07,152h7.81a3.75,3.75,0,0,0,3.72-3.27l1.15-8.92a13,13,0,0,1,12.88-11.32H230.37a13,13,0,0,1,12.88,11.32l1.15,8.92a3.75,3.75,0,0,0,3.72,3.27h7.81a3.75,3.75,0,0,0,3.71-4.31l-2-13.46A20.45,20.45,0,0,0,237.39,116.8ZM336,168c0,6.63-4.92,12-11,12H302.8A135.36,135.36,0,0,1,180,302.8V325c0,6.08-5.37,11-12,11s-12-4.92-12-11V302.8A135.36,135.36,0,0,1,33.2,180H11c-6.08,0-11-5.37-11-12s4.92-12,11-12H33.2A135.36,135.36,0,0,1,156,33.2V11c0-6.08,5.37-11,12-11s12,4.92,12,11V33.2A135.36,135.36,0,0,1,302.8,156H325C331.08,156,336,161.37,336,168Zm-55.63,12H241c-6.08,0-11-5.37-11-12s4.92-12,11-12h39.37A113.06,113.06,0,0,0,180,55.63V95c0,6.08-5.37,11-12,11s-12-4.92-12-11V55.63A113.06,113.06,0,0,0,55.63,156H95c6.08,0,11,5.37,11,12s-4.92,12-11,12H55.63A113.06,113.06,0,0,0,156,280.37V241c0-6.08,5.37-11,12-11s12,4.92,12,11v39.37A113.06,113.06,0,0,0,280.37,180Z"/></svg>