<?xml version="1.0" encoding="UTF-8" standalone="no"?>
<svg
   viewBox="0 0 314.85 335"
   version="1.1"
   id="svg120"
   xmlns="http://www.w3.org/2000/svg">
  <title
     id="title116">shot</title>
  <path
     d="m 289.33953,58.17 c 29.3,-10.17 25.33,-58.17 25.33,-58.17 0,0 -20,43 -51.64,46 -19,1.83 -30,33.5 -24.35,67.83 5.17,-12.27 25.66,-47 50.66,-55.66 z m -27.67,118.27 c 5.67,20.12 -5.45,65 -51.22,84.34 0,0 10.55,-12.89 11.69,-22.36 1.1,-9.2 26.08,-11.2 39.53,-61.98 z m -83.33,-102 c -5.34,36.12 -31.34,46.67 -42.89,46.67 20.46,-7.28 10,-8.07 26.44,-51.67 19.67,-52 65.89,-39.11 65.89,-39.11 0,0 -43.17,1.67 -49.44,44.11 z M -4.6740086e-4,231 A 104,104 0 0 0 206.54953,248.34 c 8,-13.44 18.91,-18.47 24.12,-34.34 11.46,-34.93 7.59,-45.38 31.67,-52.33 22.33,-6.45 27,-48.67 27,-48.67 0,0 -14.74,32 -44.67,36.33 -12.89,1.89 -21.3,26.47 -30,34.67 -9.56,9 -27.78,-11 -15.67,-17.33 18.18,-9.51 30.4,-17.68 33,-42.67 1.89,-18.11 -5,-36.67 1.67,-54.67 11,-29.66 33,-38 33,-38 0,0 -56.49,3.33 -57.33,60 -0.67,44.78 -34.93,60.78 -45.67,54.67 -5.67,-3.22 1.67,-13.11 18.67,-24.5 14.57,-9.76 14.33,-55.5 14.33,-55.5 0,0 -25,69.8 -71.82,63.09 -40.179997,-5.76 7.82,-24.42 7.82,-24.42 0,0 -12.57,-6.27 -30.67,0.66 -18.649997,7.15 -16.749997,16.66 -20.739997,24.17 A 104,104 0 0 0 -4.6740086e-4,231 Z M 37.489533,181 a 6.24,6.24 0 0 1 5.92,4.3 l 8.07,24.84 a 6.25,6.25 0 0 1 -2.26,7 l -21.13,15.35 a 6.24,6.24 0 0 1 -7.32,0 l -4.79,-3.48 a 6.22,6.22 0 0 1 -2.54,-5.57 90.33,90.33 0 0 1 12.84,-39.44 6.23,6.23 0 0 1 5.32,-3 z m 99.719997,45 a 6.25,6.25 0 0 1 4,-4 l 7.39,-2.4 a 6.24,6.24 0 0 1 5.58,0.89 l 22.73,16.51 a 6.23,6.23 0 0 1 2.26,7 l -6.75,20.76 a 6.22,6.22 0 0 1 -5.92,4.3 h -28.09 a 6.2,6.2 0 0 1 -5,-2.57 l -4.57,-6.28 a 6.23,6.23 0 0 1 -0.88,-5.59 z m -5.64,-1.2 -8.78,27 a 4.65,4.65 0 0 1 -4.43,3.22 H 89.969533 a 4.67,4.67 0 0 1 -4.44,-3.22 l -8.77,-27 a 4.67,4.67 0 0 1 1.69,-5.22 l 22.999997,-16.69 a 4.68,4.68 0 0 1 5.48,0 l 23,16.69 a 4.67,4.67 0 0 1 1.64,5.2 z m -1.57,50.79 -8.82,27.13 a 6.22,6.22 0 0 1 -5.92,4.3 H 93.059533 a 6.22,6.22 0 0 1 -5.92,-4.3 l -8.81,-27.13 a 6.21,6.21 0 0 1 0.88,-5.58 l 4.64,-6.44 a 6.2,6.2 0 0 1 5,-2.57 h 30.499997 a 6.23,6.23 0 0 1 5,2.57 l 4.76,6.43 a 6.24,6.24 0 0 1 0.89,5.57 z m -55.049997,-9.14 a 6.23,6.23 0 0 1 -5,2.57 h -28.1 a 6.22,6.22 0 0 1 -5.92,-4.3 l -6.74,-20.76 a 6.2,6.2 0 0 1 2.26,-7 l 22.72,-16.51 a 6.24,6.24 0 0 1 5.58,-0.89 l 7.39,2.4 a 6.25,6.25 0 0 1 4,4 l 9.29,28.58 a 6.26,6.26 0 0 1 -0.89,5.59 z m -2.69,-118 -2.12,6.53 a 1.75,1.75 0 0 1 -0.61,0.85 l -25.94,18.84 a 1.67,1.67 0 0 1 -1,0.32 h -6.82 a 1.69,1.69 0 0 1 -1.29,-2.78 91.54,91.54 0 0 1 35.52,-25.85 1.7,1.7 0 0 1 2.26,2.1 z m 4.45,15 22.73,16.55 a 6.22,6.22 0 0 1 2.559997,5 v 7.77 a 6.22,6.22 0 0 1 -2.559997,5 l -24.32,17.67 a 6.21,6.21 0 0 1 -5.58,0.88 l -7.39,-2.4 a 6.21,6.21 0 0 1 -4,-4 l -8.68,-26.71 a 6.24,6.24 0 0 1 2.26,-7 l 17.66,-12.83 a 6.24,6.24 0 0 1 7.32,0.08 z m 52.239997,-4.58 -21.1,15.36 a 6.24,6.24 0 0 1 -7.32,0 L 79.399533,158.88 a 6.23,6.23 0 0 1 -2.26,-7 l 1.83,-5.63 a 6.18,6.18 0 0 1 4.46,-4.13 91.36,91.36 0 0 1 41.519997,0 6.19,6.19 0 0 1 4.47,4.13 l 1.82,5.63 a 6.22,6.22 0 0 1 -2.29,7 z m 10.66,4.58 17.66,12.83 a 6.22,6.22 0 0 1 2.26,7 l -8.68,26.72 a 6.2,6.2 0 0 1 -4,4 l -7.39,2.4 a 6.23,6.23 0 0 1 -5.59,-0.88 l -24.31,-17.67 a 6.23,6.23 0 0 1 -2.57,-5 V 185 a 6.23,6.23 0 0 1 2.57,-5 l 22.72,-16.51 a 6.24,6.24 0 0 1 7.33,-0.03 z m 32.93,11.55 h -6.82 a 1.69,1.69 0 0 1 -1,-0.32 l -25.93,-18.84 a 1.7,1.7 0 0 1 -0.62,-0.85 l -2.12,-6.53 a 1.7,1.7 0 0 1 2.25,-2.09 91.54,91.54 0 0 1 35.55,25.85 1.69,1.69 0 0 1 -1.31,2.78 z m 19.8,54 -4.78,3.48 a 6.24,6.24 0 0 1 -7.32,0 l -21.14,-15.35 a 6.25,6.25 0 0 1 -2.26,-7 l 8.07,-24.84 a 6.25,6.25 0 0 1 5.94,-4.29 h 5.88 a 6.23,6.23 0 0 1 5.32,3 90.47,90.47 0 0 1 12.8,39.41 6.25,6.25 0 0 1 -2.51,5.59 z m -16.11,42.1 9.91,-30.49 a 1.7,1.7 0 0 1 0.61,-0.84 l 5.56,-4 a 1.69,1.69 0 0 1 2.68,1.48 90.4,90.4 0 0 1 -13.61,41.75 1.69,1.69 0 0 1 -3,-0.38 l -2.12,-6.51 a 1.68,1.68 0 0 1 -0.03,-1.03 z m -49.84,32.06 8.07,-24.84 a 6.22,6.22 0 0 1 5.92,-4.3 h 26.12 a 6.22,6.22 0 0 1 5.92,4.3 l 1.81,5.58 a 6.21,6.21 0 0 1 -1.21,6 91.58,91.58 0 0 1 -33.5,24.4 6.24,6.24 0 0 1 -6.09,-0.7 l -4.78,-3.47 a 6.23,6.23 0 0 1 -2.26,-6.99 z m -44.819997,13.23 5.57,-4.05 a 1.69,1.69 0 0 1 1,-0.32 h 32.049997 a 1.69,1.69 0 0 1 1,0.32 l 5.57,4.05 a 1.69,1.69 0 0 1 -0.59,3 91,91 0 0 1 -43.999997,0 1.69,1.69 0 0 1 -0.6,-3.02 z m -47.48,-32.49 1.76,-5.6 a 6.22,6.22 0 0 1 6,-4.3 h 26.09 a 6.22,6.22 0 0 1 5.92,4.3 l 8.08,24.84 a 6.24,6.24 0 0 1 -2.27,7 l -4.77,3.47 a 6.26,6.26 0 0 1 -6.1,0.7 91.58,91.58 0 0 1 -33.5,-24.4 6.23,6.23 0 0 1 -1.21,-6.03 z m -7.15,-4.87 a 90.51,90.51 0 0 1 -13.61,-41.82 1.69,1.69 0 0 1 2.68,-1.48 l 5.56,4 a 1.7,1.7 0 0 1 0.61,0.84 l 9.91,30.49 a 1.68,1.68 0 0 1 0,1 l -2.11,6.51 a 1.69,1.69 0 0 1 -3.04,0.43 z"
     id="path118" />
</svg>
