<svg xmlns="http://www.w3.org/2000/svg" viewBox="0 0 217 362"><title>swish-goal</title><path d="M67.24,92.84C27.78,96.5,0,105.27,0,115.5a5.9,5.9,0,0,0,.38,2C5.55,141,39.82,149.64,41,177.4c.57,13.38-7,33.1-19.15,49.33-2.43,3.16,2.33,6.82,4.76,3.65Q30.73,225,34,220c14.88,6.21,19.21,18.55,41.13,20a249.65,249.65,0,0,0,31-9.79c14,6.74,28.33,12.64,42.47,18.22a3,3,0,1,0,5.6,2.25c16.45-57.33,13.45-103,54.85-126h0c5.11-2.85,7.93-5.95,7.93-9.21,0-9.88-25.91-18.39-63.22-22.27-5.75-.56-6.58,8-.83,8.61C181.58,104.39,201,109.33,201,115c0,8.28-41.41,15-92.5,15S16,123.28,16,115c0-5.93,21.21-11,52-13.49C73.8,101,73.05,92.33,67.24,92.84ZM154,137.75c-2.4,13.08-9.32,25.44-20.19,36.3a214.28,214.28,0,0,1-17-15,159.13,159.13,0,0,0,13.92-19.6C138.87,139.1,146.66,138.51,154,137.75ZM85.91,182.22c5.14,5,10.33,9.74,15.58,14.13a158.87,158.87,0,0,1-26.23,9.85,201.57,201.57,0,0,1-26.9-20.74C62.75,187.42,74.94,186.38,85.91,182.22Zm-38.34-2.94A48.65,48.65,0,0,0,45.2,166.8a61.05,61.05,0,0,0,22.63-3.35q6.6,7.26,13.29,14C71.16,180.68,60.18,181.17,47.57,179.28Zm44.27.33a76.05,76.05,0,0,0,21-16.07c6.21,6,11.64,10.73,16.55,14.64-7.87,6.57-15.28,11.75-22.09,15.2C102.1,189.12,97,184.51,91.84,179.61Zm42.48,2.33c5.81,4.27,12.27,8.43,19.16,12.52a146.05,146.05,0,0,1-21.17,16,155.54,155.54,0,0,1-19.82-13A123.19,123.19,0,0,0,134.32,181.94ZM108.5,140q7.64,0,15-.23a145.7,145.7,0,0,1-11,15.07c-4.94-5-9.61-10-14.1-15Q103.42,140,108.5,140Zm.06,19.32a68.74,68.74,0,0,1-21.33,15.79c-4.51-4.49-9-9.19-13.46-14.05,8.46-3.86,15.81-9.23,22.39-14.77C100.61,151.16,104.73,155.47,108.56,159.32ZM90.19,139.65l1.94,2.18c-6.62,5.56-14,10.92-22.64,14.52-5.77-6.42-11.52-13.1-17.27-19.9C63.66,138,76.49,139.12,90.19,139.65ZM16.52,128.5a160.62,160.62,0,0,0,26.7,6.57c2.72,3.24,5.43,6.47,8.15,9.65-4.24,2.07-10.14,2.87-16.07,3.55A126.78,126.78,0,0,0,16.52,128.5ZM39.1,153.86c6-.77,11.75-1.86,16.27-4.47q4,4.63,8,9.14a55.39,55.39,0,0,1-20.62,2.11A64.41,64.41,0,0,0,39.1,153.86ZM46.6,192a205.8,205.8,0,0,0,20.81,16.22A138.57,138.57,0,0,1,39,211.7,71.49,71.49,0,0,0,46.6,192Zm28,42c-14.31-.41-22.64-10.86-32.17-16.36a151.44,151.44,0,0,0,31.87-4.86c7.92,5,16.11,9.61,24.46,13.85A248.45,248.45,0,0,1,74.64,234Zm7.5-23.45a160,160,0,0,0,24.56-10A170.47,170.47,0,0,0,126.36,214a176.28,176.28,0,0,1-20,9.64C98.12,219.63,90,215.28,82.14,210.52Zm68.07,32.12c-12.18-4.82-24.51-9.88-36.61-15.51a176,176,0,0,0,18.93-9.73,108.31,108.31,0,0,0,21.66,8.42C153,231.34,151.71,236.94,150.21,242.64Zm5.21-22.7a100.21,100.21,0,0,1-16.91-6.28,214.22,214.22,0,0,0,21.27-16.44Q157.71,208.59,155.42,219.94Zm6.65-34q-2,2.17-4.09,4.24-10.56-6.22-19.27-12.43a86.05,86.05,0,0,0,11.27-14,26.25,26.25,0,0,0,15.28,8.53C164.11,176.62,163.06,181.18,162.07,185.93Zm4.84-19.51c-5.22-.63-9.57-3.22-13.75-8.16a67.19,67.19,0,0,0,7-21.21,248.43,248.43,0,0,0,27.22-4.74C177.25,140.38,171.26,152.14,166.91,166.42ZM116,115H104V28h12ZM68.58,78c-6.08-.19-9.39-3.34-10.52-8.85A10,10,0,1,1,78,68v46a6,6,0,0,0,12,0V68a22,22,0,0,0-44-1.4c-.51,14.87,10.29,23.82,23.57,23.34C77.46,89.26,76.43,77.3,68.58,78ZM151.5,44C165.89,44,175,34.5,175,20.6A22,22,0,0,0,131,22v96a6,6,0,0,0,12,0V22a10,10,0,0,1,10.28-10A10.13,10.13,0,0,1,163,21.72c0,5.67-4,10.5-10.76,10.25C144.44,31.49,143.7,43.47,151.5,44ZM42.79,303.38C48.39,292.8,51,278.29,53.4,265c1.08-6,2.25-12.5,3.64-17.49,3.93,3,7.63,5.57,10.29,6.17,7.56,1.7,18.47-5.63,30.2-8.44C73.42,269.4,57.3,290.64,48.29,310.4Q45.35,307,42.79,303.38Zm-7.1.2a91.23,91.23,0,0,1-12.81-30.89,69.62,69.62,0,0,0,0,39.7,15,15,0,0,0,6.32-2.17A21.42,21.42,0,0,0,35.69,303.58Zm67.82-4.16c27.8-7,43.59-19.38,49.11-28.32-13.14-9.94-34.91-25.08-41.95-26.46a24.15,24.15,0,0,0-3.57-.43c-27.62,26.89-45.34,49.88-54.38,71A96.21,96.21,0,0,0,62,323.4C66.88,313,80.22,305.32,103.51,299.42Zm-56-35.5c1.44-8,2.72-15,4.52-20.41-2.2-1.76-4.35-3.48-6.33-4.93a69.87,69.87,0,0,0-18.33,22.81A82.35,82.35,0,0,0,39,297.47C43.19,287.8,45.5,275,47.49,263.92ZM105,305.24c-22,5.57-34.47,12.7-38,21.76q2.92,2,6,3.74c23.94,13.67,50.29,15,71.76,3.85a69.54,69.54,0,0,0,12.1-59.07C150,285.67,133.26,298.09,105,305.24ZM70.06,336Q68,334.77,66,333.49c.32,7.75,5.6,17.16,15.75,28.07a71.12,71.12,0,0,0,7.77.44A69.2,69.2,0,0,0,135,345C114.5,351.12,91.36,348.11,70.06,336Zm-9.88-6.43a99.39,99.39,0,0,1-9.84-8.27,80.69,80.69,0,0,0-4.83,25.05,69.3,69.3,0,0,0,26.75,13.54C62.86,348.33,58.88,338.33,60.18,329.52ZM39.35,308.83a26,26,0,0,1-7,6.49,21.12,21.12,0,0,1-7.46,2.85A69.35,69.35,0,0,0,39.8,341.06a90,90,0,0,1,5.91-24.54A98.61,98.61,0,0,1,39.35,308.83Z"/></svg>