<svg xmlns="http://www.w3.org/2000/svg" viewBox="0 0 339.67 314.52"><title>aerial-goal</title><path d="M142.29,128.35l8.82,27.15a4.67,4.67,0,0,0,4.45,3.24H184.1a4.7,4.7,0,0,0,4.46-3.24l8.82-27.15a4.69,4.69,0,0,0-1.7-5.24l-23.09-16.77a4.7,4.7,0,0,0-5.51,0L144,123.11A4.69,4.69,0,0,0,142.29,128.35ZM108.76,88.62l8.12,25a6.27,6.27,0,0,1-2.27,7L93.36,136A6.26,6.26,0,0,1,86,136l-4.81-3.49A6.28,6.28,0,0,1,78.63,127,90.92,90.92,0,0,1,91.57,87.27a6.23,6.23,0,0,1,5.33-3h5.91A6.25,6.25,0,0,1,108.76,88.62Zm31.71,81.79,4.59-6.32a6.31,6.31,0,0,0,.89-5.61l-9.34-28.73a6.25,6.25,0,0,0-4-4l-7.42-2.41a6.26,6.26,0,0,0-5.62.89L96.71,140.8a6.27,6.27,0,0,0-2.27,7l6.78,20.87a6.27,6.27,0,0,0,6,4.32H135.4A6.27,6.27,0,0,0,140.47,170.41Zm46.37,36.27,8.78-27a6.27,6.27,0,0,0-.88-5.61l-4.64-6.38a6.26,6.26,0,0,0-5.06-2.58H154.63a6.25,6.25,0,0,0-5.06,2.58L144.93,174a6.25,6.25,0,0,0-.89,5.61l8.79,27a6.24,6.24,0,0,0,5.95,4.32h22.11A6.25,6.25,0,0,0,186.84,206.68ZM172.33,88.75v7.81a6.26,6.26,0,0,0,2.58,5.06l24.44,17.76a6.26,6.26,0,0,0,5.62.89l7.42-2.42a6.25,6.25,0,0,0,4-4L225.14,87a6.26,6.26,0,0,0-2.28-7l-17.75-12.9a6.26,6.26,0,0,0-7.35,0l-22.85,16.6A6.25,6.25,0,0,0,172.33,88.75ZM261,127A90.9,90.9,0,0,0,248.1,87.27a6.23,6.23,0,0,0-5.33-3h-5.92a6.26,6.26,0,0,0-5.95,4.33l-8.11,25a6.27,6.27,0,0,0,2.27,7L246.3,136a6.27,6.27,0,0,0,7.36,0l4.81-3.49A6.27,6.27,0,0,0,261,127Zm-22.58,41.71,6.78-20.87a6.26,6.26,0,0,0-2.28-7l-22.84-16.59a6.24,6.24,0,0,0-5.61-.89l-7.43,2.41a6.23,6.23,0,0,0-4,4l-9.34,28.73a6.24,6.24,0,0,0,.89,5.61l4.59,6.32a6.26,6.26,0,0,0,5.06,2.58H232.5A6.27,6.27,0,0,0,238.45,168.67ZM114,87l8.72,26.86a6.28,6.28,0,0,0,4,4l7.43,2.42a6.25,6.25,0,0,0,5.61-.89l24.44-17.76a6.26,6.26,0,0,0,2.58-5.06V88.75a6.25,6.25,0,0,0-2.58-5.06l-22.84-16.6a6.27,6.27,0,0,0-7.36,0L116.26,80A6.25,6.25,0,0,0,114,87ZM232.5,178.53H206.24a6.26,6.26,0,0,0-6,4.33l-8.12,25a6.27,6.27,0,0,0,2.28,7l4.8,3.49a6.25,6.25,0,0,0,6.09.71,91.9,91.9,0,0,0,33.73-24.56,6.25,6.25,0,0,0,1.2-6l-1.82-5.6A6.26,6.26,0,0,0,232.5,178.53Zm-92.08,39.79,4.8-3.49a6.27,6.27,0,0,0,2.27-7l-8.11-25a6.26,6.26,0,0,0-5.95-4.33H107.17a6.26,6.26,0,0,0-6,4.33l-1.82,5.6a6.24,6.24,0,0,0,1.19,6A91.94,91.94,0,0,0,134.33,219,6.25,6.25,0,0,0,140.42,218.32ZM195.19,49.83a6.24,6.24,0,0,0-4.49-4.16,91.53,91.53,0,0,0-41.73,0,6.24,6.24,0,0,0-4.49,4.16l-1.84,5.66a6.25,6.25,0,0,0,2.27,7l21.24,15.44a6.27,6.27,0,0,0,7.36,0l21.24-15.44a6.26,6.26,0,0,0,2.28-7Zm63.25,89.89-5.59,4.06a1.68,1.68,0,0,0-.62.84l-9.95,30.65a1.71,1.71,0,0,0,0,1l2.12,6.54a1.7,1.7,0,0,0,3,.38,90.91,90.91,0,0,0,13.68-42A1.69,1.69,0,0,0,258.44,139.72Zm-65.9,81.22-5.6-4.07a1.7,1.7,0,0,0-1-.32H153.72a1.67,1.67,0,0,0-1,.32l-5.6,4.07a1.7,1.7,0,0,0,.58,3A91.67,91.67,0,0,0,192,224,1.7,1.7,0,0,0,192.54,220.94ZM97.39,175.27l-10-30.65a1.66,1.66,0,0,0-.61-.84l-5.59-4.06a1.69,1.69,0,0,0-2.69,1.48,90.8,90.8,0,0,0,13.68,42,1.69,1.69,0,0,0,3-.38l2.13-6.54A1.71,1.71,0,0,0,97.39,175.27ZM201.9,52.07,204,58.64a1.7,1.7,0,0,0,.62.85l26.07,18.93a1.64,1.64,0,0,0,1,.33h6.86a1.7,1.7,0,0,0,1.3-2.79,91.92,91.92,0,0,0-35.72-26A1.7,1.7,0,0,0,201.9,52.07ZM109,78.42,135,59.49a1.73,1.73,0,0,0,.61-.85l2.14-6.57a1.7,1.7,0,0,0-2.25-2.1A91.92,91.92,0,0,0,99.8,76a1.7,1.7,0,0,0,1.3,2.79H108A1.64,1.64,0,0,0,109,78.42Zm60.88,236.1,6.52-80.19h-13Zm11.69-29.23c3.33-18.43,11.66-31.27,24.14-38.59l-7-11.53C181.67,252.13,180.85,265.6,181.52,285.29ZM141,235.17l-7,11.53c12.48,7.32,20.81,20.16,24.15,38.59C158.82,265.6,158,252.13,141,235.17ZM273,1c3.81,2.48,8.89,11.11,4,20.67C289,20.56,296.89,6.89,296,0c5.44,5,4.11,21.89-12.33,30.33,8.44,4.89,26.66-12.22,32.33-22.66-1.67,11.11,9.33,28.66-29.33,43.33,20,2.67,30-7.45,45.66-18.67-3.77,5.56,11.11,45.11-50.66,40.67,21.55,12.44,43.33.89,58-8.71-9.34,12.71-10.67,56.28-66,28.94C286.19,108,296.54,110.39,306,109c-12.07,15.14-28.5,31.7-52.41-23.16a19.92,19.92,0,0,1,1.07-17.16c7.44-12.57,5.2-15.32-.64-14.35a6.14,6.14,0,0,1-7-6.13h0a6.22,6.22,0,0,1,3-5.27C270.42,30.16,276,9.49,273,1ZM89.71,42.93a6.24,6.24,0,0,1,3,5.27h0a6.14,6.14,0,0,1-7,6.13c-5.84-1-8.09,1.78-.64,14.35a19.92,19.92,0,0,1,1.06,17.16C62.16,140.7,45.73,124.14,33.67,109c9.45,1.39,19.8-1,32.33-15.77C10.67,120.57,9.33,77,0,64.29,14.67,73.89,36.44,85.44,58,73-3.78,77.44,11.11,37.89,7.33,32.33,23,43.55,33,53.67,53,51,14.33,36.33,25.33,18.78,23.67,7.67,29.33,18.11,47.56,35.22,56,30.33,39.56,21.89,38.22,5,43.67,0c-.89,6.89,7,20.56,19,21.67-4.89-9.56.19-18.19,4-20.67C63.69,9.49,69.24,30.16,89.71,42.93Z"/></svg>