<svg xmlns="http://www.w3.org/2000/svg" viewBox="0 0 318.56 250.71"><title>bicycle-goal</title><path d="M256.72,49.2a64,64,0,0,0-35.47,9.08L182.59,8.79a22.9,22.9,0,0,0-26.23-7.27l-23.94,9.19a5.33,5.33,0,0,0-1.86,8.75h0A13.78,13.78,0,0,0,144,22.32l16.74-6.42a9.27,9.27,0,0,1,10.64,2.94L176.18,25a4.45,4.45,0,0,1-1.92,6.9L74.62,70.1a3,3,0,0,1-3.19-.68L69.7,67.69a3,3,0,0,1,1-4.91l24-9.19a5.33,5.33,0,0,0,1.86-8.75h0A13.78,13.78,0,0,0,83.08,42L38.27,59.18a7.7,7.7,0,0,0-4.68,9.58,7.49,7.49,0,0,0,9.76,4.54l4.39-1.69a5.57,5.57,0,0,1,5.93,1.26l7.72,7.72A5.58,5.58,0,0,1,63,84.91L60.4,122.28a64.33,64.33,0,1,0,67.07,52.42l19.21-7.62a22.81,22.81,0,0,0,12.78-12.73l37-92.51a4.46,4.46,0,0,1,7.65-1.09l5.23,6.7A64.26,64.26,0,1,0,256.72,49.2ZM74.37,137.5a50,50,0,0,1,35.11,27.68L73.45,179a1.39,1.39,0,0,1-1.89-1.39Zm39.85,48.93a49.94,49.94,0,1,1-54.83-49.7l-3.32,47.45a12.22,12.22,0,0,0,11.34,13h0a12.09,12.09,0,0,0,5.35-.83l41.05-16.27A50.53,50.53,0,0,1,114.22,186.43Zm19.64-30.6-11,4.21a64.35,64.35,0,0,0-47.51-36.92L77,99.48a1.39,1.39,0,0,1,2.37-.88l54.94,54.94A1.4,1.4,0,0,1,133.86,155.83Zm53-110.24-39.29,97.24a1.39,1.39,0,0,1-2.27.46L85.93,83.92a1.39,1.39,0,0,1,.49-2.28l98.65-37.87A1.39,1.39,0,0,1,186.86,45.59Zm64.8,117.72a49.93,49.93,0,0,1-33.38-84.48l33.23,42.54a4.19,4.19,0,0,0,7.5-2.58h0a7.51,7.51,0,0,0,1.29-10.53L230.17,69.69a49.95,49.95,0,1,1,21.49,93.62Z"/></svg>