<svg xmlns="http://www.w3.org/2000/svg" viewBox="0 0 328.22 280.97"><title>demolition</title><path d="M328.22,99.41,304.67,83.86l14.66-21.78-25.77,6.67-5.34-25.34L273.56,65.64,252.22,51l3.27,17.5c-8.2-2.59-18.1-7.56-18.49-16.5-.67-15.33,11.67-22.67-8.33-42.67-7.84-7.83-29.62-17-46.34,1.67-5.66,6.33-12.08,20.33-6,34.33,2.76,6.34,1.15,10.9-2.64,15.49a72,72,0,0,1-13.8-13.27c-4.29-1.43-9.47,4.13-13.45,11.31a113.59,113.59,0,1,0,50.32,31.51c3.18-7.33,5.47-14.52,3-18.15A80.17,80.17,0,0,1,185,67.31a18.79,18.79,0,0,0,4.34-20C185.11,35,186.33,26,193.67,20s16.94-9.72,27.66,1c11.34,11.33,3.08,21,1.67,30C221,63.84,240,71.88,249.39,79.05L233.11,83l22.67,12.89-14.67,20.89,26.22-5.92,4.45,25.92,14.66-21.34S310,133.64,309.56,132.3s-8.89-29.78-8.89-29.78ZM58.77,100.49C40.13,116.4,26.5,135.3,18.63,154.3,27.78,95.39,70.51,62.31,124.5,68,102.62,71.94,79.37,82.91,58.77,100.49Z"/></svg>