<svg xmlns="http://www.w3.org/2000/svg" viewBox="0 0 222 318.85"><title>hat-trick</title><path d="M190.06,203c-20.47,9.26-48.16,14.86-79.06,14.86S52.41,212.25,31.94,203L26,265.35c0,29.54,38.06,53.5,85,53.5s85-24,85-53.5ZM111,269.85c-34.43,0-64-12.89-77.41-31.41l2.55-26.78c14.34,16.78,42.47,28.19,74.86,28.19s60.52-11.41,74.86-28.19l2.55,26.78C175.05,257,145.43,269.85,111,269.85Zm111-107.5c0,28.44-49.7,51.5-111,51.5S0,190.79,0,162.35c0-18.43,20.86-34.59,52.22-43.69A42.93,42.93,0,0,0,49,134.85a41.39,41.39,0,0,0,.45,6c-5.39,4.6-8.45,9.88-8.45,15.49,0,18,31.34,32.5,70,32.5s70-14.55,70-32.5c0-5.61-3.06-10.89-8.45-15.49a41.39,41.39,0,0,0,.45-6,42.91,42.91,0,0,0-3.2-16.19C201.15,127.76,222,143.92,222,162.35ZM104.78,87.85S91,17.62,54.56,17.62c-16.89,0-34.67,14.23-34.67,30.23,0,31.55,40.52,64,40.52,64l0,0a40.17,40.17,0,0,0-7.43,23c0,26,26,47,58,47s58-21,58-47c0-11.93-5.49-22.81-14.52-31.09h0S191,69.18,191,34.51c0-28-21.95-35.85-38.67-34.33C115.7,3.51,115.7,88,115.7,88A14.26,14.26,0,0,1,104.78,87.85ZM69,125.85a10,10,0,1,1,10,10A10,10,0,0,1,69,125.85Zm67,19.77c0,10.31-12.09,18.67-27,18.67s-27-8.36-27-18.67c-.32-1.15,1.89-1.76,2.21-.6,4.14,6.63,13.68,11.27,24.79,11.27s20.65-4.64,24.79-11.27C134.1,143.9,136.31,144.5,136,145.62Zm2-9.77a10,10,0,1,1,10-10A10,10,0,0,1,138,135.85Z"/></svg>