<svg xmlns="http://www.w3.org/2000/svg" viewBox="0 0 328.18 309.67"><title>mvp</title><path d="M79.3,125.64,131,117a8.38,8.38,0,0,0,6.06-4.4l24.2-46.47a2.76,2.76,0,0,1,4.89,0l24.21,46.47a8.34,8.34,0,0,0,6,4.4l51.67,8.66a2.76,2.76,0,0,1,1.52,4.65l-36.72,37.38a8.4,8.4,0,0,0-2.31,7.12l7.73,51.82a2.76,2.76,0,0,1-4,2.87l-46.89-23.36a8.35,8.35,0,0,0-7.48,0L113,229.48a2.76,2.76,0,0,1-4-2.87l7.74-51.82a8.41,8.41,0,0,0-2.32-7.12L77.79,130.29A2.76,2.76,0,0,1,79.3,125.64Zm95.62,157v23c0,5.33-11,5.33-11,0,0,5.33-11,5.33-11,0v-23c0-5.34,11-5.34,11,0C163.92,277.33,174.92,277.33,174.92,282.67ZM58.07,231.56c.77-3.89,2.19-2.56,5.22-3.78-3.56-32.45-20.45-22.67-32.45-36C29.51,205.56,31.1,219.92,58.07,231.56Zm4,1c14.66,14.66,28.76,1.33,42.28,32.85,1.16,2.7-4.28,4.26-8.51,3.59C70.51,265,61.7,246.84,62.07,232.56ZM104,12.06C90,26.5,94.74,43.33,87.29,46.87c-9.75,4.63-20.55,3-28.36,14.09C54.31,42.13,82.85,22.45,104,12.06ZM148.42,29.8c-12.73,10.33-23.36,22.08-48.83,23.75-1.13-8.14,2.3-16.69,8.09-16.09C123.37,39.1,132.88,26.74,148.42,29.8ZM51.51,91.44C55.51,105,49.38,127.07,38,137c-2.77-1-5.43-11-12.77,1C22.91,114,41.15,93,51.51,91.44ZM33.07,140c.45,14.2,7.41,0,3.88,46-6.43-3-8.51-5.35-11.36-.67C17.92,161.67,26.29,148.11,33.07,140Zm-.65-43.89c-.3-4.7-7.25-7.54-5.89-14.25C30.74,61,45,46.81,56.59,37.44,50.49,53.45,63.17,64.3,32.42,96.11ZM101.84,31c0-18,43.23-30,59.34-31-18.34,9.33-3.31,16-21,26C137.59,27.47,103.84,28.67,101.84,31ZM60.73,95.33l-8.89-8.44c10.67-12,9.78-29.33,41.78-32.45C91.43,70.24,82.14,84.29,60.73,95.33ZM40,256.44c21.78-6.66,34.48,14.34,39.89,19.45s19.67,6.33,18.78,17C54.18,295.33,53,263.22,40,256.44Zm110.86,42.3h0c-6.93,9.56-44.68,16.47-66.75,2.09,21.06-.22,16.2-10.5,48.86-8.84C136.83,292.19,150.46,294.85,150.81,298.74Zm.11-17.07v6c-50,1.67-43.78-9.15-62.66-12.34C119.59,268.17,141.26,268.33,150.92,281.67ZM4.4,135.67c20,10.53,4.65,37,18.54,57.55C-17.84,174.66,9.18,149.2,4.4,135.67ZM58.84,252.85C13.51,236.44,14.49,217.47,8.62,195c23.11,1.78,17.39,35.38,45.45,42.89C60.9,239.72,55.61,247.85,58.84,252.85Zm-42-111.52C11.47,123.11-2.63,124.67,20,86c0,0,6.45,13.33,2,27.44C19.33,121.91,17.26,124.44,16.81,141.33Zm280.52,50.45c-12,13.33-28.89,3.55-32.44,36,3,1.22,4.44-.11,5.22,3.78C297.07,219.92,298.67,205.56,297.33,191.78Zm-65,77.22c-4.22.67-9.66-.89-8.51-3.59,13.53-31.52,27.62-18.19,42.29-32.85C266.48,246.84,257.67,265,232.33,269ZM269.25,61c-7.81-11.09-18.61-9.46-28.36-14.09-7.45-3.54-2.66-20.37-16.7-34.81C245.33,22.45,273.86,42.13,269.25,61Zm-48.76-23.5c5.79-.6,9.23,7.95,8.1,16.09-25.47-1.67-36.1-13.42-48.83-23.75C195.3,26.74,204.81,39.1,220.49,37.46ZM303,138c-7.34-12-10-2-12.78-1-11.43-9.93-17.55-32-13.55-45.56C287,93,305.27,114,303,138Zm-.41,47.33c-2.85-4.68-4.93-2.33-11.37.67-3.52-46,3.44-31.8,3.89-46C301.89,148.11,310.25,161.67,302.59,185.33Zm-31-147.89c11.58,9.37,25.85,23.6,30.06,44.42,1.35,6.71-5.59,9.55-5.89,14.25C265,64.3,277.68,53.45,271.59,37.44ZM188,26c-17.69-10-2.67-16.67-21-26,16.11,1,59.37,13,59.33,31C224.33,28.67,190.59,27.47,188,26Zm46.56,28.44c32,3.12,31.11,20.45,41.77,32.45l-8.89,8.44C246,84.29,236.75,70.24,234.56,54.44Zm-5,238.42c-.89-10.64,13.36-11.86,18.77-17s18.11-26.11,39.89-19.45C275.22,263.22,274,295.33,229.56,292.86ZM195.25,292c32.67-1.66,27.8,8.62,48.87,8.84-22.07,14.38-59.82,7.47-66.76-2.09h0C177.72,294.85,191.35,292.19,195.25,292Zm44.34-16.66c-18.89,3.19-12.67,14-62.67,12.34v-6C186.59,268.33,208.26,268.17,239.59,275.33Zm65.65-82.11c13.88-20.56-1.46-47,18.54-57.55C319,149.2,346,174.66,305.24,193.22Zm-31.13,44.67c28.06-7.51,22.33-41.11,45.45-42.89-5.87,22.47-4.89,41.44-50.23,57.85C272.57,247.85,267.27,239.72,274.11,237.89Zm32.08-124.45c-4.41-14.11,2-27.44,2-27.44,22.59,38.67,8.49,37.11,3.15,55.33C310.92,124.44,308.84,121.91,306.19,113.44Z"/></svg>