<svg xmlns="http://www.w3.org/2000/svg" viewBox="0 0 286 229.6"><title>playmaker</title><path d="M61,26.11a61,61,0,1,0,61,61A61,61,0,0,0,61,26.11Zm0,103a42,42,0,1,1,42-42A42,42,0,0,1,61,129.11ZM255.83,2.78h0a9.51,9.51,0,0,1,0,13.44L216.94,55.11,255.83,94a9.49,9.49,0,0,1,0,13.43h0a9.51,9.51,0,0,1-13.44,0L203.5,68.54l-38.89,38.89a9.51,9.51,0,0,1-13.44,0h0a9.49,9.49,0,0,1,0-13.43l38.89-38.89L151.17,16.22a9.51,9.51,0,0,1,0-13.44h0a9.51,9.51,0,0,1,13.44,0L203.5,41.67,242.39,2.78A9.51,9.51,0,0,1,255.83,2.78Zm1.89,159.62,25.5,25.49a9.51,9.51,0,0,1,0,13.44l-25.5,25.49a9.49,9.49,0,0,1-13.43,0h0a9.49,9.49,0,0,1,0-13.43l8.77-8.78H169a9.51,9.51,0,0,1-6.72-2.78l-35.6-35.61a9.49,9.49,0,0,1,0-13.43h0a9.51,9.51,0,0,1,13.44,0l30,30a9.51,9.51,0,0,0,6.72,2.78h77.19l-9.77-9.78a9.49,9.49,0,0,1,0-13.43h0A9.49,9.49,0,0,1,257.72,162.4Z"/></svg>