<svg xmlns="http://www.w3.org/2000/svg" viewBox="0 0 334.67 323.67"><title>pool-shot</title><path d="M334.67,242.67l-70-67.67,27.66-23.33-27.33-24L296.67,82l-56,5L263.33,0,200.67,62l-24-33.33-24,33-60-55,20,81L75.67,91,89,127.33,0,151.67l86.67,24L65,216l46.33.67-34.66,107,76-83,24,82,24-82.34L242.33,265,240,216Zm-158.25-8.34a82.92,82.92,0,1,1,82.91-82.91A82.91,82.91,0,0,1,176.42,234.33Zm40.93-108.22c-1.88,7.69-13.24,3.41-12-4.61C206.62,113,219.44,117.5,217.35,126.11Zm-2.47,24c-2.78,10-15.38,3.62-13.88-6.3C202.73,132.41,217.94,139.12,214.88,150.11ZM243.81,130C237.57,105.21,213.94,89.8,191,95.53S154.62,126,160.86,150.72s29.86,40.15,52.77,34.42S250.05,154.69,243.81,130ZM223,157.75c-3.52,6.49-11,7.71-18,5.13-6.82-2.47-13-8.39-13.89-16.21-.94-8.06,3.29-14.83,10.67-15.63-5.58-4.54-7.29-12-4.15-17.69s9.8-6.18,15.93-4.21,12,6.57,13.21,13.64c1.21,6.88-2.4,12.79-8.65,13.55A17,17,0,0,1,223,157.75Z"/></svg>