<svg xmlns="http://www.w3.org/2000/svg" viewBox="0 0 330 272.26"><title>savior</title><path d="M313.35,245.75a73.14,73.14,0,0,1-14.75,11.94c-7.79,3.85-13.77,5.2-25.84-1.08a1.47,1.47,0,0,1,1.35-1.87c1.13-.05,2.25-.07,3.39-.07a75.32,75.32,0,0,1,21,3A74.19,74.19,0,0,0,272,247.71a1.5,1.5,0,0,1-1.25-1.27v0a1.51,1.51,0,0,1,1.43-1.7c.77,0,1.54,0,2.32,0a74.89,74.89,0,0,1,30.69,6.53,74,74,0,0,0-34.09-14.63,1.45,1.45,0,0,1-1.23-1.37v0a1.45,1.45,0,0,1,1.43-1.5h1.2a74.58,74.58,0,0,1,40.73,12,72.78,72.78,0,0,0-41.5-22,1.89,1.89,0,0,1-1.61-1.92v0a1.9,1.9,0,0,1,2-1.87,74,74,0,0,1,44.44,17.92c-10.71-14.75-26.12-24.35-45.13-27.83a1.46,1.46,0,1,1,.35-2.89c19.37,1.79,35.52,9.86,47.48,23.37a72.89,72.89,0,0,0-46.07-33.69,2.53,2.53,0,0,1-2-2.55v0a2.54,2.54,0,0,1,2.95-2.41,73.35,73.35,0,0,1,47.49,29.18,72.78,72.78,0,0,0-48-36.28,2.83,2.83,0,0,1-2.17-2.78v-.06a2.83,2.83,0,0,1,3.35-2.76,72.85,72.85,0,0,1,50.86,37c-8.13-22.55-27.79-39.89-52.16-45.43a3.12,3.12,0,0,1-2.4-2.86v-.06a3.09,3.09,0,0,1,3.72-3.22,72.69,72.69,0,0,1,49.73,38.25c-8.23-22.48-27.93-39.72-52.31-45.17a3.29,3.29,0,0,1-2.51-2.71v-.07a3.28,3.28,0,0,1,3.81-3.76,72.74,72.74,0,0,1,52,38.71c-8.36-22.81-28.52-40.22-53.4-45.39a8.93,8.93,0,0,1-6.52-5.75l0,0a7.16,7.16,0,0,1,8-9.51C325.5,136.67,348,202.08,313.35,245.75Zm-296.7,0A73.14,73.14,0,0,0,31.4,257.69c7.79,3.85,13.77,5.2,25.84-1.08a1.47,1.47,0,0,0-1.35-1.87c-1.12-.05-2.25-.07-3.39-.07a75.32,75.32,0,0,0-21,3A74.19,74.19,0,0,1,58,247.71a1.5,1.5,0,0,0,1.25-1.27v0a1.51,1.51,0,0,0-1.43-1.7c-.77,0-1.54,0-2.32,0a74.89,74.89,0,0,0-30.69,6.53A74,74,0,0,1,58.9,236.57a1.44,1.44,0,0,0,1.23-1.37v0a1.45,1.45,0,0,0-1.43-1.5H57.5a74.52,74.52,0,0,0-40.72,12,72.76,72.76,0,0,1,41.49-22,1.91,1.91,0,0,0,1.62-1.92v0a1.9,1.9,0,0,0-2-1.87,74,74,0,0,0-44.44,17.92C24.16,223,39.56,213.38,58.57,209.9a1.46,1.46,0,1,0-.35-2.89c-19.36,1.79-35.52,9.86-47.48,23.37a72.89,72.89,0,0,1,46.07-33.69,2.52,2.52,0,0,0,2-2.55v0a2.54,2.54,0,0,0-3-2.41A73.31,73.31,0,0,0,8.35,220.86a72.74,72.74,0,0,1,48-36.28,2.83,2.83,0,0,0,2.17-2.78v-.06A2.82,2.82,0,0,0,55.16,179,72.85,72.85,0,0,0,4.29,216c8.13-22.55,27.79-39.89,52.16-45.43a3.12,3.12,0,0,0,2.4-2.86v-.06a3.09,3.09,0,0,0-3.72-3.22A72.69,72.69,0,0,0,5.4,202.65c8.23-22.48,27.93-39.72,52.31-45.17a3.29,3.29,0,0,0,2.51-2.71v-.07a3.28,3.28,0,0,0-3.81-3.76,72.74,72.74,0,0,0-52,38.71c8.36-22.81,28.52-40.22,53.4-45.39a8.93,8.93,0,0,0,6.52-5.75l0,0a7.16,7.16,0,0,0-8-9.51C4.5,136.67-18,202.08,16.65,245.75Zm121.4-81.38,24.17-17.56a4.91,4.91,0,0,1,5.77,0l24.17,17.56a4.91,4.91,0,0,1,1.78,5.49l-9.23,28.42a4.91,4.91,0,0,1-4.67,3.39H150.17a4.9,4.9,0,0,1-4.67-3.39l-9.24-28.42A4.93,4.93,0,0,1,138.05,164.37Zm-43.11-40.7H88.75a6.57,6.57,0,0,0-5.61,3.14A95.28,95.28,0,0,0,69.63,168.3a6.54,6.54,0,0,0,2.68,5.86l5,3.66a6.54,6.54,0,0,0,7.7,0l22.24-16.16a6.53,6.53,0,0,0,2.38-7.32l-8.49-26.15A6.54,6.54,0,0,0,94.94,123.67Zm34.12,93H99.5a6.55,6.55,0,0,1-6.23-4.53l-7.1-21.85A6.53,6.53,0,0,1,88.55,183l23.91-17.38a6.56,6.56,0,0,1,5.88-.93l7.77,2.53a6.55,6.55,0,0,1,4.21,4.21l9.78,30.07a6.57,6.57,0,0,1-.94,5.88l-4.8,6.61A6.54,6.54,0,0,1,129.06,216.67Zm47.59,40H153.56a6.55,6.55,0,0,1-6.23-4.53l-9.18-28.24a6.57,6.57,0,0,1,.94-5.88l4.83-6.65a6.55,6.55,0,0,1,5.3-2.7H181a6.56,6.56,0,0,1,5.3,2.7l4.83,6.66a6.51,6.51,0,0,1,.93,5.87l-9.17,28.24A6.55,6.55,0,0,1,176.65,256.67ZM170.2,123l23.91-17.37a6.56,6.56,0,0,1,7.71,0l18.58,13.5a6.55,6.55,0,0,1,2.38,7.33l-9.13,28.11a6.57,6.57,0,0,1-4.21,4.21l-7.78,2.52a6.52,6.52,0,0,1-5.87-.93L170.2,141.74a6.53,6.53,0,0,1-2.7-5.3v-8.17A6.57,6.57,0,0,1,170.2,123Zm87.7,51.2-5,3.66a6.56,6.56,0,0,1-7.71,0l-22.23-16.16a6.55,6.55,0,0,1-2.39-7.32l8.5-26.15a6.54,6.54,0,0,1,6.23-4.52h6.19a6.54,6.54,0,0,1,5.6,3.14,95.16,95.16,0,0,1,13.52,41.49A6.56,6.56,0,0,1,257.9,174.16Zm-27.19,42.51H201.15a6.56,6.56,0,0,1-5.3-2.7L191,207.35a6.56,6.56,0,0,1-.93-5.88l9.78-30.07a6.53,6.53,0,0,1,4.2-4.21l7.78-2.53a6.57,6.57,0,0,1,5.88.93L241.66,183a6.53,6.53,0,0,1,2.38,7.32l-7.1,21.85A6.55,6.55,0,0,1,230.71,216.67ZM109.6,119.09l18.58-13.5a6.56,6.56,0,0,1,7.71,0L159.8,123a6.57,6.57,0,0,1,2.7,5.31v8.17a6.53,6.53,0,0,1-2.7,5.3l-25.59,18.59a6.51,6.51,0,0,1-5.87.93l-7.78-2.52a6.59,6.59,0,0,1-4.21-4.21l-9.13-28.11A6.55,6.55,0,0,1,109.6,119.09Zm127.34,108.1,1.91,5.87a6.55,6.55,0,0,1-1.28,6.31,96.14,96.14,0,0,1-35.26,25.68,6.55,6.55,0,0,1-6.41-.73l-5-3.66a6.57,6.57,0,0,1-2.38-7.32l8.5-26.15a6.54,6.54,0,0,1,6.23-4.52h27.49A6.54,6.54,0,0,1,236.94,227.19Zm-109,37.86a96.06,96.06,0,0,1-35.26-25.68,6.53,6.53,0,0,1-1.28-6.31l1.91-5.87a6.54,6.54,0,0,1,6.23-4.52H127a6.54,6.54,0,0,1,6.23,4.52l8.49,26.15a6.53,6.53,0,0,1-2.38,7.32l-5,3.66A6.55,6.55,0,0,1,127.9,265.05ZM193.57,93.44a6.55,6.55,0,0,1-2.38,7.33L169,116.92a6.56,6.56,0,0,1-7.71,0L139,100.77a6.58,6.58,0,0,1-2.38-7.33l1.93-5.92a6.53,6.53,0,0,1,4.7-4.36,96.32,96.32,0,0,1,43.69,0,6.53,6.53,0,0,1,4.7,4.36Zm67.12,89.74a95.21,95.21,0,0,1-14.32,44,1.78,1.78,0,0,1-3.2-.4L241,219.94a1.7,1.7,0,0,1,0-1.09l10.42-32.09a1.84,1.84,0,0,1,.65-.88l5.85-4.25A1.78,1.78,0,0,1,260.69,183.18Zm-72.43,86.25a96.14,96.14,0,0,1-46.31,0,1.79,1.79,0,0,1-.62-3.17l5.86-4.25a1.8,1.8,0,0,1,1.05-.34H182a1.75,1.75,0,0,1,1,.34l5.86,4.25A1.78,1.78,0,0,1,188.26,269.43Zm-99-49.49L87,226.79a1.78,1.78,0,0,1-3.2.4,95.21,95.21,0,0,1-14.32-44,1.78,1.78,0,0,1,2.82-1.55l5.85,4.25a1.76,1.76,0,0,1,.64.88l10.43,32.09A1.7,1.7,0,0,1,89.26,219.94ZM201,87.54a96.2,96.2,0,0,1,37.39,27.2,1.78,1.78,0,0,1-1.36,2.93h-7.17a1.75,1.75,0,0,1-1-.34L201.55,97.5a1.8,1.8,0,0,1-.64-.89l-2.23-6.87A1.77,1.77,0,0,1,201,87.54ZM100.32,117.67H93.15a1.78,1.78,0,0,1-1.36-2.93,96.33,96.33,0,0,1,37.39-27.21,1.78,1.78,0,0,1,2.35,2.21l-2.23,6.87a1.76,1.76,0,0,1-.65.89l-27.29,19.83A1.77,1.77,0,0,1,100.32,117.67Zm90.23-82.23c-1,4.12,7.32,6.59.55,13.23-2.66,2.61-9.66,3.11-13.33-1.78-3.4-4.53-.67-10.67,2.89-11.89,8.52-2.93-15.56-35-15.56-35S141,32.07,149.55,35c3.55,1.22,6.29,7.36,2.89,11.89-3.67,4.89-10.67,4.39-13.34,1.78-6.76-6.64,1.56-9.11.56-13.23-1.79-7.38-21.22-17.22-21.22-17.22,7,12.78,12.15,29.71,15.11,51.78,7.85-3.79,15.55-5,31.55-5s23.71,1.21,31.56,5c3-22.07,8.14-39,15.11-51.78C211.77,18.22,192.34,28.06,190.55,35.44Z"/></svg>