<svg xmlns="http://www.w3.org/2000/svg" viewBox="0 0 314.85 335"><title>shot</title><path d="M25.51,58.17C-3.79,48,.18,0,.18,0s20,43,51.64,46c19,1.83,30,33.5,24.35,67.83C71,101.56,50.51,66.83,25.51,58.17ZM53.18,176.44c-5.67,20.12,5.45,65,51.22,84.34,0,0-10.55-12.89-11.69-22.36C91.61,229.22,66.63,227.22,53.18,176.44Zm83.33-102c5.34,36.12,31.34,46.67,42.89,46.67-20.46-7.28-10-8.07-26.44-51.67-19.67-52-65.89-39.11-65.89-39.11S130.24,32,136.51,74.44ZM314.85,231A104,104,0,0,1,108.3,248.34c-8-13.44-18.91-18.47-24.12-34.34-11.46-34.93-7.59-45.38-31.67-52.33-22.33-6.45-27-48.67-27-48.67S40.25,145,70.18,149.33c12.89,1.89,21.3,26.47,30,34.67,9.56,9,27.78-11,15.67-17.33-18.18-9.51-30.4-17.68-33-42.67-1.89-18.11,5-36.67-1.67-54.67-11-29.66-33-38-33-38s56.49,3.33,57.33,60c.67,44.78,34.93,60.78,45.67,54.67,5.67-3.22-1.67-13.11-18.67-24.5C117.94,111.74,118.18,66,118.18,66s25,69.8,71.82,63.09c40.18-5.76-7.82-24.42-7.82-24.42s12.57-6.27,30.67.66c18.65,7.15,16.75,16.66,20.74,24.17A104,104,0,0,1,314.85,231Zm-37.49-50a6.24,6.24,0,0,0-5.92,4.3l-8.07,24.84a6.25,6.25,0,0,0,2.26,7l21.13,15.35a6.24,6.24,0,0,0,7.32,0l4.79-3.48a6.22,6.22,0,0,0,2.54-5.57A90.33,90.33,0,0,0,288.57,184a6.23,6.23,0,0,0-5.32-3Zm-99.72,45a6.25,6.25,0,0,0-4-4l-7.39-2.4a6.24,6.24,0,0,0-5.58.89L137.94,237a6.23,6.23,0,0,0-2.26,7l6.75,20.76a6.22,6.22,0,0,0,5.92,4.3h28.09a6.2,6.2,0,0,0,5-2.57l4.57-6.28a6.23,6.23,0,0,0,.88-5.59Zm5.64-1.2,8.78,27a4.65,4.65,0,0,0,4.43,3.22h28.39a4.67,4.67,0,0,0,4.44-3.22l8.77-27a4.67,4.67,0,0,0-1.69-5.22l-23-16.69a4.68,4.68,0,0,0-5.48,0l-23,16.69A4.67,4.67,0,0,0,183.28,224.78Zm1.57,50.79,8.82,27.13a6.22,6.22,0,0,0,5.92,4.3h22.2a6.22,6.22,0,0,0,5.92-4.3l8.81-27.13a6.21,6.21,0,0,0-.88-5.58L231,263.57a6.2,6.2,0,0,0-5-2.57h-30.5a6.23,6.23,0,0,0-5,2.57L185.74,270A6.24,6.24,0,0,0,184.85,275.57Zm55.05-9.14a6.23,6.23,0,0,0,5,2.57H273a6.22,6.22,0,0,0,5.92-4.3l6.74-20.76a6.2,6.2,0,0,0-2.26-7l-22.72-16.51a6.24,6.24,0,0,0-5.58-.89l-7.39,2.4a6.25,6.25,0,0,0-4,4l-9.29,28.58a6.26,6.26,0,0,0,.89,5.59Zm2.69-118,2.12,6.53a1.75,1.75,0,0,0,.61.85l25.94,18.84a1.67,1.67,0,0,0,1,.32h6.82a1.69,1.69,0,0,0,1.29-2.78,91.54,91.54,0,0,0-35.52-25.85A1.7,1.7,0,0,0,242.59,148.46Zm-4.45,15L215.41,180a6.22,6.22,0,0,0-2.56,5v7.77a6.22,6.22,0,0,0,2.56,5l24.32,17.67a6.21,6.21,0,0,0,5.58.88l7.39-2.4a6.21,6.21,0,0,0,4-4l8.68-26.71a6.24,6.24,0,0,0-2.26-7l-17.66-12.83A6.24,6.24,0,0,0,238.14,163.46Zm-52.24-4.58L207,174.23a6.24,6.24,0,0,0,7.32,0l21.13-15.35a6.23,6.23,0,0,0,2.26-7l-1.83-5.63a6.18,6.18,0,0,0-4.46-4.13,91.36,91.36,0,0,0-41.52,0,6.19,6.19,0,0,0-4.47,4.13l-1.82,5.63A6.22,6.22,0,0,0,185.9,158.88Zm-10.66,4.58-17.66,12.83a6.22,6.22,0,0,0-2.26,7L164,210a6.2,6.2,0,0,0,4,4l7.39,2.4a6.23,6.23,0,0,0,5.59-.88l24.31-17.67a6.23,6.23,0,0,0,2.57-5V185a6.23,6.23,0,0,0-2.57-5l-22.72-16.51A6.24,6.24,0,0,0,175.24,163.46ZM142.31,175h6.82a1.69,1.69,0,0,0,1-.32l25.93-18.84a1.7,1.7,0,0,0,.62-.85l2.12-6.53a1.7,1.7,0,0,0-2.25-2.09A91.54,91.54,0,0,0,141,172.22,1.69,1.69,0,0,0,142.31,175Zm-19.8,54,4.78,3.48a6.24,6.24,0,0,0,7.32,0l21.14-15.35a6.25,6.25,0,0,0,2.26-7l-8.07-24.84A6.25,6.25,0,0,0,144,181h-5.88a6.23,6.23,0,0,0-5.32,3A90.47,90.47,0,0,0,120,223.41,6.25,6.25,0,0,0,122.51,229Zm16.11,42.1-9.91-30.49a1.7,1.7,0,0,0-.61-.84l-5.56-4a1.69,1.69,0,0,0-2.68,1.48A90.4,90.4,0,0,0,133.47,279a1.69,1.69,0,0,0,3-.38l2.12-6.51A1.68,1.68,0,0,0,138.62,271.08Zm49.84,32.06-8.07-24.84a6.22,6.22,0,0,0-5.92-4.3H148.35a6.22,6.22,0,0,0-5.92,4.3l-1.81,5.58a6.21,6.21,0,0,0,1.21,6,91.58,91.58,0,0,0,33.5,24.4,6.24,6.24,0,0,0,6.09-.7l4.78-3.47A6.23,6.23,0,0,0,188.46,303.14Zm44.82,13.23-5.57-4.05a1.69,1.69,0,0,0-1-.32H194.66a1.69,1.69,0,0,0-1,.32l-5.57,4.05a1.69,1.69,0,0,0,.59,3,91,91,0,0,0,44,0A1.69,1.69,0,0,0,233.28,316.37Zm47.48-32.49L279,278.3A6.22,6.22,0,0,0,273,274H246.91a6.22,6.22,0,0,0-5.92,4.3l-8.08,24.84a6.24,6.24,0,0,0,2.27,7l4.77,3.47a6.26,6.26,0,0,0,6.1.7,91.58,91.58,0,0,0,33.5-24.4A6.23,6.23,0,0,0,280.76,283.88Zm7.15-4.87a90.51,90.51,0,0,0,13.61-41.82,1.69,1.69,0,0,0-2.68-1.48l-5.56,4a1.7,1.7,0,0,0-.61.84l-9.91,30.49a1.68,1.68,0,0,0,0,1l2.11,6.51A1.69,1.69,0,0,0,287.91,279Z"/></svg>