<svg xmlns="http://www.w3.org/2000/svg" viewBox="0 0 357.99 220.44"><title>turtle-goal</title><path d="M254.13,41.33c-3.67-7.83,34.42-12.23,37.33-6.5,6,11.84,7.33,25.84,6,49.84L254.13,67.33C258.91,57.33,258.24,50.13,254.13,41.33Zm82,72c7.19-5.78,14.21-8.46,21.12-9.15a.81.81,0,0,0,.31-1.52c-12.31-6.43-18.15-11.25-32.32-11.25-3.78,0-6.26,1.52-9.11,5.92ZM147.46,59c-2.23-13.88-3.2-22.1,5.33-32.33,4.45-5.34-27.55-17.34-32.89-11.56-13,14-14.76,34-7.77,58.22ZM90.79,84.67l-32,30C25.4,98.82-2.1,60,.13,38.67S31.24,0,49.46,0C53.9,0,84.57,18.22,77.87,34.85,68.73,57.55,79.68,78.67,90.79,84.67ZM46.35,39.56A13.34,13.34,0,1,0,33,52.89,13.34,13.34,0,0,0,46.35,39.56ZM197.88,74c-56.31,0-106.16,24.17-136.8,61.33a8.49,8.49,0,0,0,6.68,13.93h0A28.76,28.76,0,0,1,94,163.49a115.58,115.58,0,0,0,205-11.11,28.36,28.36,0,0,1,24.39-16.56h0a5.43,5.43,0,0,0,3.66-9.17C296.05,94.43,249.69,74,197.88,74Z"/></svg>