<svg xmlns="http://www.w3.org/2000/svg" viewBox="0 0 332.22 307.56"><title>ultra-damage</title><path d="M136.44,138.78l14.45,11-16,18.55,4.33,5,1.89,20.45-24.89-15.11V126.22l40.34-22.44Zm34.89-45.45-24,41.78,28.45,26.67,25.78-13-7.12-40.34Zm40.89,64-21.33,4.45,13.33,12.44L189.11,200l33.78-16V129.78L206,120Zm-66.66,13.34L168.67,168l-12.11-11.56Zm5.33,6.22v19.55l23.55,15.12,20-31.12-15.11-11.55ZM304.67,62.22l-13.34,16L298,91.56ZM35.33,72.89l14.23-5.33L35.33,50.67ZM49.56,278.22l-7.12,13.34,9.78-6.67Zm248.44-40V256l9.33-8.89Zm-6.67-15.11,6.67,7.11-3.33-15.11ZM20.22,40,17.56,50.67,22,53.33ZM198.89,97.78l25.78-24.89L186.44,56V34.67L224.67,9.78l46.22,19.55L225.56,0,174.44,28.44V87.11Zm26.67-18.67L204.22,97.78l26.67,15.11,48.89-32-6.22-11.56L250.44,91.11Zm51.55-48.89-2.55,34.45,7.22,11ZM230,127.56l29.33-3.12v-8l22.45-12.66,9.55,6.44,6.67-8L279.78,91.56,230,120Zm5.33,50.22L264,190.22V133.33H233.56Zm32.89,16V200l16.89,8,40-24-40,16Zm32-78.22,24.89,15.11,1.78,42.66,5.33-45.77-27.55-18ZM174.44,226.67v58.22l48.23,22.67L185.56,280V256l37.33-23.11V201.78ZM230,192l1.56,25.78,19.11-2.67,20.22,10.67v12.44l10.89,6.22V218.22Zm40.89,80.89-35.33,29.78,44.22-24.45v-28l-8.89-4.44ZM114.11,192,84.78,208l9.33,7.11,10-7.11,22.67,19.78,20.55-16.22Zm39.33,23.11-26.66,20.67,29.78,16v22.44l-20.17,12.89,1.72,10,28-18.89V222.67Zm-43.33,78L71.44,274.22l40,28.45,19.34-5.56-2.67-12.22Zm-26.67-80-4-6.67-18,11.78,4,50.22,4-45.77ZM101.11,120,50.67,96,10.22,125.78l40.45-22,27.55,17.55-4,38.67,26.89,1.78Zm-14,53.78-39.78,20L5.78,170.67,0,176.44,46.22,208l54.89-27.56,1.11-13.77-14.66-1.34Zm-76.89-3.11,9.56,4-6.89-45.78ZM112,85.78l24.39,15.55,28.94-19.55-4.44-58.22L114.67,4l37.77,26.22V53.33ZM81.33,76.89V31.56l7.56-5.78,2.22-8.22L74.67,26.67,69.33,83.56,119.11,116l17.28-10.22-7.06-5.34-8,3.34ZM104.89,2.22,78.22,15.56l8.89,2Z"/></svg>