<svg xmlns="http://www.w3.org/2000/svg" viewBox="0 0 178 319.53"><title>win</title><path d="M50.5,288c0,9.68,16.38,15.53,39.06,15.53s39.06-5.85,39.06-15.53l-.12-8c7.56,4.19,12.13,9.61,12.13,15.54,0,13.28-22.86,24-51.07,24s-51.08-10.76-51.08-24c0-5.93,4.57-11.35,12.14-15.54Zm8-15.58c21.34-22.38,37.11-51,45.43-88.07a96.38,96.38,0,0,1-78.18-22.45,29.17,29.17,0,0,0,4.61,12.37c24,36.19,28.14,62.63,28.14,91.14Zm61.69-92.06c-4.58,32.6-24.8,73.16-61.69,102V284c0,7.46,13.33,13.5,31,13.5s31-6,31-13.5V265.39c0-28.51,4.14-54.95,28.14-91.14a29.12,29.12,0,0,0,4.72-13.36A96.42,96.42,0,0,1,120.19,180.34ZM178,89A89,89,0,1,1,89,0,89,89,0,0,1,178,89ZM144.53,69.26l-34-5.69a5.52,5.52,0,0,1-4-2.9L90.61,30.09a1.82,1.82,0,0,0-3.22,0L71.46,60.67a5.52,5.52,0,0,1-4,2.9l-34,5.69a1.82,1.82,0,0,0-1,3.07l24.16,24.6a5.51,5.51,0,0,1,1.52,4.68l-5.09,34.1a1.81,1.81,0,0,0,2.61,1.89l30.86-15.37a5.46,5.46,0,0,1,4.92,0l30.86,15.37a1.81,1.81,0,0,0,2.61-1.89l-5.09-34.1a5.51,5.51,0,0,1,1.52-4.68l24.16-24.6A1.82,1.82,0,0,0,144.53,69.26Z"/></svg>