<?xml version="1.0" encoding="utf-8"?>
<!-- Generator: Adobe Illustrator 26.0.1, SVG Export Plug-In . SVG Version: 6.00 Build 0)  -->
<svg version="1.1" id="Actual" xmlns="http://www.w3.org/2000/svg" xmlns:xlink="http://www.w3.org/1999/xlink" x="0px" y="0px"
	 viewBox="0 0 2560 1440" style="enable-background:new 0 0 2560 1440;" xml:space="preserve">
<style type="text/css">
	.st0{opacity:0.32;fill:none;stroke:#F15A24;stroke-width:2;stroke-miterlimit:10;}
	.st1{fill:#FF4324;}
	.st2{font-family:'MyriadPro-Regular';}
	.st3{font-size:48px;}
</style>
<path id="Replay-Bottom-Overlay" class="st0" d="M2121.5,1350.9c5-2.1,32.3-38.9,39.8-39.4l398.6-23.1c0,1,0,141.6,0,141.6H0
	c0-14,0-133.5,0-142.5l399.4,23.5c7.9,0.5,39.7,38,40.3,38C1097.7,1391.7,2118.2,1352.3,2121.5,1350.9z"/>
<g>
	
		<image style="overflow:visible;opacity:0.75;" width="51" height="51" xlink:href="7A6FF836.png"  transform="matrix(1 0 0 1 16 1357)">
	</image>
	<g>
		<circle class="st1" cx="41.8" cy="1382.1" r="10"/>
	</g>
</g>
<g>
	
		<image style="overflow:visible;opacity:0.75;" width="183" height="83" xlink:href="7A6FF830.png"  transform="matrix(1 0 0 1 44 1343)">
	</image>
	<g>
		<text transform="matrix(1 0 0 1 59.4526 1398.7168)" class="st1 st2 st3">REPLAY</text>
	</g>
</g>
<path id="Replay-Bottom-Overlay_00000071544128607113480190000004156330637167907495_" class="st0" d="M438.5,78.4
	c-5,2.1-32.3,38.9-39.8,39.4L0,140.9c0-1,0-141.6,0-141.6h2560c0,14,0,133.5,0,142.5l-399.4-23.5c-7.9-0.5-39.7-38-40.3-38
	C1462.3,37.6,441.8,77,438.5,78.4z"/>
<g>
	
		<image style="overflow:visible;opacity:0.75;" width="51" height="51" xlink:href="7A6FF831.png"  transform="matrix(1 0 0 1 2337 28)">
	</image>
	<g>
		<circle class="st1" cx="2362.3" cy="53.9" r="10"/>
	</g>
</g>
<g>
	
		<image style="overflow:visible;opacity:0.75;" width="182" height="83" xlink:href="7A6FF83D.png"  transform="matrix(1 0 0 1 2365 15)">
	</image>
	<g>
		<text transform="matrix(1 0 0 1 2380.0012 70.5469)" class="st1 st2 st3">REPLAY</text>
	</g>
</g>
</svg>
