<svg xmlns="http://www.w3.org/2000/svg" viewBox="0 0 339 260.94"><title>aerial-hit</title><path d="M140.81,80.33c1.46-16,14-27.83,28-26.51S193,69.15,191.53,85.11s-14,27.83-28,26.51S139.35,96.29,140.81,80.33Zm148.41-1.66c9,.8,17.25-7.49,18.33-18.51s-5.38-20.59-14.43-21.38-17.26,7.48-18.34,18.5S280.17,77.87,289.22,78.67ZM339,33.31c-.05,3.53,0,6.57-.06,9.06a7.93,7.93,0,0,1-6.46,7.42l-13.62,2.62a5.79,5.79,0,0,1-6.59-3.74,25.66,25.66,0,0,0-4.44-8,21.08,21.08,0,0,0-14.43-7.75,20.51,20.51,0,0,0-7,.6c-9.82,2.57-17.19,12-18.33,23.37,0,.3-.05.6-.07.9a5.8,5.8,0,0,1-4.72,5.29l-61,11.74a5.87,5.87,0,0,1-6.7-4.06c-3.88-12.56-14-22-26.58-23.21a28.26,28.26,0,0,0-9.9.8c-13.37,3.51-23.29,16.18-24.67,31.53-.1,1.09-.15,2.16-.16,3.22a5.84,5.84,0,0,1-10.25,3.81c-11.23-12.74-14.71-32.54-9.77-41.21,2.17-3.82,0-13.44-1.84-13.84-6.35-1.33-13.28,1.07-17-4.55-1.92-2.95,1-6.57,3.57-5,13.87,8.35,30-4.79,28.59,4.76-.44,2.91-4,1.67-5.06,3.92s0,6.49,2,6.28C141.82,35.39,157.2,10,177.14,5.22,234.4-8.38,237.87,7.86,256.07,17c8.76,4.38,43.62,3.58,56.15,5,11.36,1.24,16.89,13.23,17.11,18.65a1,1,0,0,0,1.49.79c2.09-1.34,2.1-4.12,2.37-8.18a3,3,0,0,1,2.4-2.77A2.91,2.91,0,0,1,339,33.31ZM189.55,12.48c-16,5.07-18.5,12.1-18.62,15.77a2,2,0,0,0,2.41,2.07c27.17-4.9,42.8-6,60.23-5.82a3.32,3.32,0,0,0,3.34-3.16l.1-2C238,14.39,213.05,5,189.55,12.48Zm5.68,248.46,11.55-142.22H183.67Zm20.72-53c5.92-32.69,20.7-55.47,42.83-68.44l-12.45-20.44C216.22,149.13,214.77,173,216,207.94Zm-71.83-88.88L131.68,139.5c22.13,13,36.91,35.75,42.83,68.44C175.69,173,174.24,149.13,144.12,119.06ZM80.26,92.78a2,2,0,0,1,0-3.27c9.58-7.12,2.85-17.7-5.15-13.21C68.61,79.94,61.91,90.87,47,90A1.63,1.63,0,0,1,45.9,87.3c12.77-15.38,12.31-28.79,36.54-33,8.15-1.42,6.93-4.4,3.72-8.81a1.16,1.16,0,0,1,1.09-1.84c6.82.86,11.14,5,14.47,7C81.47,13.87,43.47,22.82,32,64.72c15.67-10.11,14.33,13.89,3,13C20.13,76.56,9.55,81.17,0,97.06c20.56-14.34,41,24,65.67,24,35.93,0,48.73-13.54,45.68-43C105.17,89.36,92.18,101.1,80.26,92.78Z"/></svg>