<svg xmlns="http://www.w3.org/2000/svg" viewBox="0 0 266.97 255.4"><title>backwards-goal</title><path d="M24,49.4H15V14.23A32.11,32.11,0,0,1,3,21.31V12.75C8.56,10.88,14.49,6.21,16.53.4H24ZM99,36.15l9-1.1c.86,6.89,9.53,10.14,12.94,3,3.63-7.55-1.89-12.95-9-11l0-7.61c5,.13,11-5.47,6.31-10.19-4.11-4.12-9.5.47-10,5l-8.6-1.47C101.74,2.76,112-3.1,121.76,1.71c9.49,4.66,9.43,16.25.36,21.19,12.86,2.75,10.85,19.63,1.14,25C113.35,53.35,100.28,47.63,99,36.15ZM195.45,38,205,37c1.21,9.59,12.81,8.44,14.14-.47,1.4-9.41-7.63-15.83-14.76-7.88l-7.8-1.13L201.54,1.4H227v9H208.83l-1.51,8.52c16.3-8.15,27.53,13.58,18.28,26.18C217.12,56.63,197.41,52.45,195.45,38ZM118,217.4v-10H98v-8.16l21.15-30.84H127v31h6v8h-6v10Zm0-18V182.76L106.78,199.4Zm-84,9v9H0C1.43,204.19,13.47,198.51,20.84,189c10.11-13-9.17-20-10-6.45l-9.65-1c1.65-15.29,25.09-21.95,31.76-6.4s-12,22.61-18.18,33.2Zm188-140c0-13.34-19-13.34-19,0v31H126v-31c0-13.34-19-13.34-19,0v31H29v-31c0-13.34-19-13.34-19,0v78c0,13.33,19,13.33,19,0v-28h78v28c0,13.33,19,13.33,19,0v-28H212.8a9.18,9.18,0,0,0,9.17-9.17Zm-8,67c-29.28,0-53,26.86-53,60s23.72,60,53,60,53-26.87,53-60S243.24,135.4,214,135.4Zm15.32,87.06c-6.59-9.83-13.49-26.78-27.38-25.09v25.09H189.78V162.37c10.62,0,23.28-1.86,33.71.45,19.28,4.27,20.62,30.07-.43,33.12,9.76,5.69,14.92,17.21,20.74,26.52ZM226.42,180c0-10.72-17.51-7.48-24.51-7.46v15.25C209.22,187.85,226.47,191,226.42,180Z"/></svg>