<svg xmlns="http://www.w3.org/2000/svg" viewBox="0 0 349.29 270.44"><title>bicycle-hit</title><path d="M308.69,49.78a49.17,49.17,0,0,0-27.93,3.1L256.67,11.13a17.54,17.54,0,0,0-19.15-8.34L218.34,7.21A4.09,4.09,0,0,0,216,13.66h0a10.56,10.56,0,0,0,9.93,3.62l13.41-3.09a7.12,7.12,0,0,1,7.77,3.38l3,5.15a3.42,3.42,0,0,1-2.2,5L168,46.15a2.29,2.29,0,0,1-2.35-.85l-1.13-1.51a2.29,2.29,0,0,1,1.32-3.61l19.18-4.42a4.09,4.09,0,0,0,2.35-6.45h0a10.56,10.56,0,0,0-9.93-3.62L141.59,34A5.9,5.9,0,0,0,137,40.74a5.75,5.75,0,0,0,6.94,4.49l3.51-.81a4.27,4.27,0,0,1,4.37,1.6l5,6.69a4.25,4.25,0,0,1,.77,3.46l-6,28.12a49.37,49.37,0,1,0,45.36,47l15.42-3.73a17.54,17.54,0,0,0,11.08-8.31l38.06-66.35a3.42,3.42,0,0,1,5.93,0l3.26,5.65a49.33,49.33,0,1,0,37.94-8.8ZM160.63,97.36a38.37,38.37,0,0,1,23.72,24.8l-28.87,6.65a1.06,1.06,0,0,1-1.28-1.26Zm25.05,41.45a38.34,38.34,0,1,1-36.36-43.65l-7.6,35.71A9.38,9.38,0,0,0,148.94,142h0a9.28,9.28,0,0,0,4.16-.05L186,134A37.8,37.8,0,0,1,185.68,138.81Zm18.2-21.15-8.79,2a49.38,49.38,0,0,0-32.16-33.14l3.79-17.79a1.07,1.07,0,0,1,1.9-.42L204.49,116A1.07,1.07,0,0,1,203.88,117.66ZM256,39.55l-40.28,69.7a1.07,1.07,0,0,1-1.78.11L175.16,57.87a1.06,1.06,0,0,1,.61-1.68l79-18.22A1.07,1.07,0,0,1,256,39.55ZM292.62,136a38.32,38.32,0,0,1-16.33-67.78L297,104.07a3.22,3.22,0,0,0,6-1.16h0a5.75,5.75,0,0,0,2.11-7.86L286.31,62.51A38.34,38.34,0,1,1,292.62,136ZM262,199.78l-65-16.11L189.56,213,163,203.11l-19.44,67.33L123,203.22,90.11,223.11V184.44L0,213.22l71.44-62.44L2.78,131.33l68.33-20.66L48.11,78h43L67.56,0l67.51,72.56A64,64,0,1,0,212.72,142Z"/></svg>