<svg xmlns="http://www.w3.org/2000/svg" viewBox="0 0 344.8 296.87"><title>clear</title><path d="M234.79,78.3,243,103.42a4.34,4.34,0,0,0,4.13,3h26.41a4.34,4.34,0,0,0,4.13-3l8.16-25.12a4.34,4.34,0,0,0-1.57-4.85L262.84,57.93a4.32,4.32,0,0,0-5.1,0L236.37,73.45A4.34,4.34,0,0,0,234.79,78.3Zm-31-35.87,7.51,23.11a5.79,5.79,0,0,1-2.1,6.48L189.51,86.3a5.78,5.78,0,0,1-6.81,0l-4.45-3.23a5.82,5.82,0,0,1-2.37-5.19,84,84,0,0,1,12-36.68,5.81,5.81,0,0,1,4.95-2.78h5.47A5.79,5.79,0,0,1,203.76,42.43ZM233.1,118l4.25-5.84a5.82,5.82,0,0,0,.83-5.2L229.54,80.4a5.82,5.82,0,0,0-3.72-3.72l-6.88-2.23a5.76,5.76,0,0,0-5.19.82L192.61,90.63a5.81,5.81,0,0,0-2.11,6.48l6.28,19.31a5.78,5.78,0,0,0,5.51,4h26.13A5.79,5.79,0,0,0,233.1,118Zm43.09,33.39L284.44,126a5.79,5.79,0,0,0-.82-5.19l-4.38-6a5.79,5.79,0,0,0-4.69-2.39H246a5.81,5.81,0,0,0-4.69,2.39l-4.38,6a5.79,5.79,0,0,0-.82,5.19l8.25,25.39a5.79,5.79,0,0,0,5.51,4h20.79A5.78,5.78,0,0,0,276.19,151.42ZM262.33,42.1v7.23A5.79,5.79,0,0,0,264.72,54l22.62,16.44a5.78,5.78,0,0,0,5.2.82L299.41,69a5.78,5.78,0,0,0,3.72-3.72l8.08-24.85A5.81,5.81,0,0,0,309.1,34L292.67,22.05a5.81,5.81,0,0,0-6.81,0L264.72,37.41A5.81,5.81,0,0,0,262.33,42.1ZM344.7,77.88A84.17,84.17,0,0,0,332.75,41.2a5.82,5.82,0,0,0-5-2.78h-5.47a5.8,5.8,0,0,0-5.51,4L309.3,65.54A5.8,5.8,0,0,0,311.41,72L331.07,86.3a5.81,5.81,0,0,0,6.81,0l4.45-3.23A5.82,5.82,0,0,0,344.7,77.88Zm-20.9,38.54,6.27-19.31a5.79,5.79,0,0,0-2.1-6.48L306.83,75.27a5.78,5.78,0,0,0-5.2-.82l-6.87,2.23A5.78,5.78,0,0,0,291,80.4L282.4,107a5.78,5.78,0,0,0,.82,5.2l4.25,5.84a5.76,5.76,0,0,0,4.68,2.39h26.14A5.79,5.79,0,0,0,323.8,116.42ZM208.46,40.47l8.08,24.85A5.78,5.78,0,0,0,220.25,69l6.88,2.23a5.76,5.76,0,0,0,5.19-.82L255,54a5.78,5.78,0,0,0,2.38-4.68V42.1A5.8,5.8,0,0,0,255,37.41L233.8,22.05a5.81,5.81,0,0,0-6.81,0L210.56,34A5.79,5.79,0,0,0,208.46,40.47Zm109.83,85H294a5.8,5.8,0,0,0-5.51,4L281,152.54a5.81,5.81,0,0,0,2.11,6.48l4.44,3.23a5.82,5.82,0,0,0,5.67.65,85,85,0,0,0,31.17-22.71,5.78,5.78,0,0,0,1.13-5.58l-1.68-5.18A5.8,5.8,0,0,0,318.29,125.42Zm-85.23,36.83L237.5,159a5.81,5.81,0,0,0,2.11-6.48l-7.51-23.11a5.8,5.8,0,0,0-5.51-4h-24.3a5.79,5.79,0,0,0-5.51,4l-1.69,5.18a5.8,5.8,0,0,0,1.13,5.58,85,85,0,0,0,31.17,22.71A5.82,5.82,0,0,0,233.06,162.25ZM283.75,6.07a5.77,5.77,0,0,0-4.15-3.84,84.76,84.76,0,0,0-38.63,0,5.77,5.77,0,0,0-4.15,3.84l-1.7,5.24a5.79,5.79,0,0,0,2.1,6.48l19.66,14.28a5.78,5.78,0,0,0,6.81,0l19.66-14.28a5.81,5.81,0,0,0,2.11-6.48ZM342.3,89.28,337.13,93a1.56,1.56,0,0,0-.57.79l-9.22,28.36a1.61,1.61,0,0,0,0,1l2,6a1.57,1.57,0,0,0,2.82.36,84.2,84.2,0,0,0,12.66-38.91A1.57,1.57,0,0,0,342.3,89.28Zm-61,75.21-5.18-3.77a1.6,1.6,0,0,0-.92-.3H245.37a1.6,1.6,0,0,0-.92.3l-5.18,3.77a1.57,1.57,0,0,0,.55,2.79,84.73,84.73,0,0,0,40.94,0A1.57,1.57,0,0,0,281.3,164.49Zm-88.07-42.31L184,93.82a1.68,1.68,0,0,0-.57-.79l-5.17-3.75a1.57,1.57,0,0,0-2.5,1.37,84.2,84.2,0,0,0,12.66,38.91,1.58,1.58,0,0,0,2.83-.36l2-6A1.47,1.47,0,0,0,193.23,122.18ZM290,7.73l2,6.08a1.53,1.53,0,0,0,.57.78l24.13,17.53a1.53,1.53,0,0,0,.92.3h6.34a1.57,1.57,0,0,0,1.21-2.58,85.09,85.09,0,0,0-33.05-24A1.57,1.57,0,0,0,290,7.73Zm-86,24.39,24.13-17.53a1.53,1.53,0,0,0,.57-.78l2-6.08a1.58,1.58,0,0,0-2.09-1.94,85,85,0,0,0-33.05,24.05,1.57,1.57,0,0,0,1.2,2.58H203A1.53,1.53,0,0,0,203.93,32.12ZM18,220.07c9.41-12.81,26-16.55,37-8.35s12.36,25.23,3,38-26,16.55-37,8.36S8.59,232.89,18,220.07Zm125.86,74.06c7.32,5.33,18.52,2.63,25-6s5.82-20-1.5-25.35-18.51-2.62-25,6.05S136.53,288.8,143.85,294.13Zm65.39-12.81c-1.83,2.94-3.31,5.56-4.66,7.61a7.82,7.82,0,0,1-9.23,3l-12.82-4.72a5.72,5.72,0,0,1-3.66-6.52,25,25,0,0,0,.33-9A20.76,20.76,0,0,0,171,257.78a20.26,20.26,0,0,0-6.18-3c-9.6-2.83-20.6,1.34-27.36,10.37l-.53.73a5.72,5.72,0,0,1-6.67,2.06L72.85,246.73a5.79,5.79,0,0,1-3.58-6.84c3.12-12.56-.6-25.68-10.6-33.1a27.59,27.59,0,0,0-8.76-4.37C36.85,198.56,22,204.2,13,216.44c-.63.86-1.22,1.74-1.77,2.63a5.75,5.75,0,0,1-10.58-2c-3-16.46,4.17-34.93,12.75-39.72,3.77-2.12,6.89-11.31,5.5-12.61-4.68-4.36-11.74-5.87-12-12.47-.12-3.46,4.15-5,5.55-2.4C20,164,40.29,161.12,34.21,168.43c-1.85,2.24-4.22-.62-6.26.74s-3.27,5.5-1.51,6.31c15.47,7.16,41.39-6.46,60.62-.3,55.21,17.7,49.86,33.17,60.57,50.12,5.15,8.16,35,25.23,44.83,32.77,8.95,6.84,7.51,19.76,4.93,24.44a1,1,0,0,0,.85,1.43c2.45-.07,3.87-2.41,6.16-5.69a2.94,2.94,0,0,1,3.44-1.12A2.87,2.87,0,0,1,209.24,281.32ZM93.82,187.63c-16-3.86-21.76.78-23.74,3.81a2,2,0,0,0,1,3c25.41,9.7,39.14,16.75,53.76,25.77a3.27,3.27,0,0,0,4.43-1l1.08-1.6C133.69,213.9,117.43,193.31,93.82,187.63Zm102.72,17a2.13,2.13,0,0,0,.77,3.64c44.94,14.42,84.78,38.3,124.25,62.87l-.59-.28c-42-25.05-93.39-47.9-141.64-59.55a2.29,2.29,0,0,1-1.26-3.68l34.39-42.75a2.66,2.66,0,0,1,3.36-.65,107.28,107.28,0,0,0,28,10.33.65.65,0,0,1,0,1.27C227.51,179.31,210.93,192,196.54,204.58Zm-31.2,10.2A2.24,2.24,0,0,1,164,211.3L201.84,158a2.63,2.63,0,0,0-.46-3.56,94.63,94.63,0,0,1-18.72-20.93.65.65,0,0,0-1.18.44c4,33.81-34,77.3-28.81,82.91,13.62,14.76,75.84,10.38,164.26,52C264,241.59,200.86,222.26,165.34,214.78Z"/></svg>