<svg xmlns="http://www.w3.org/2000/svg" viewBox="0 0 308.67 329"><title>epic-save</title><path d="M123.05,18.21c-54.28,21-93,51.61-86.51,68.45s55.78,13.49,110.07-7.48,93-51.61,86.51-68.45S177.34-2.76,123.05,18.21ZM144,72.36c-42.22,16.31-80.54,18.93-85.59,5.86S83.47,41.34,125.69,25s80.54-18.93,85.59-5.86S186.19,56.05,144,72.36Zm24.2,116.18,13.52,30.68a5.51,5.51,0,0,0,5.6,3.26l33.36-3.38a5.5,5.5,0,0,0,4.82-4.31l7.1-32.77a5.5,5.5,0,0,0-2.61-5.93l-29-16.87a5.5,5.5,0,0,0-6.45.65l-25,22.34A5.51,5.51,0,0,0,168.17,188.54Zm-43.89-42.49,12.44,28.23a7.34,7.34,0,0,1-1.83,8.45l-23,20.55a7.33,7.33,0,0,1-8.6.87l-6-3.51a7.37,7.37,0,0,1-3.66-6.2A106.81,106.81,0,0,1,104,146.51a7.34,7.34,0,0,1,5.88-4.11l6.91-.7A7.36,7.36,0,0,1,124.28,146.05ZM171,237.91l4.62-7.93a7.35,7.35,0,0,0,.37-6.66L161.7,190.84a7.32,7.32,0,0,0-5.17-4.22l-9-2a7.36,7.36,0,0,0-6.45,1.71l-24.74,22.1a7.37,7.37,0,0,0-1.83,8.45l10.4,23.59a7.36,7.36,0,0,0,7.47,4.35l33-3.34A7.37,7.37,0,0,0,171,237.91Zm58.5,36.91,7.07-32.64a7.38,7.38,0,0,0-1.7-6.46l-6.18-6.91a7.39,7.39,0,0,0-6.22-2.42L186.94,230a7.36,7.36,0,0,0-5.61,3.62l-4.66,8a7.32,7.32,0,0,0-.38,6.66l13.47,30.56a7.34,7.34,0,0,0,7.47,4.35l25.84-2.61A7.36,7.36,0,0,0,229.52,274.82ZM198.61,138.68l.92,9.13a7.37,7.37,0,0,0,3.62,5.62l30.67,17.86a7.35,7.35,0,0,0,6.66.37l8.4-3.7a7.36,7.36,0,0,0,4.22-5.17l7-32.42a7.36,7.36,0,0,0-3.49-7.91l-22.27-13a7.35,7.35,0,0,0-8.6.87L201,132.46A7.35,7.35,0,0,0,198.61,138.68Zm108.2,34.18A106.7,106.7,0,0,0,287,128a7.32,7.32,0,0,0-6.59-2.85l-6.91.7a7.35,7.35,0,0,0-6.45,5.76l-6.53,30.15a7.37,7.37,0,0,0,3.49,7.91l26.65,15.52a7.36,7.36,0,0,0,8.61-.87l5.2-4.65A7.34,7.34,0,0,0,306.81,172.86Zm-21.46,51.42,5.45-25.2a7.34,7.34,0,0,0-3.48-7.91l-28.67-16.69a7.32,7.32,0,0,0-6.66-.38l-8.4,3.7a7.36,7.36,0,0,0-4.22,5.17l-7.51,34.69a7.35,7.35,0,0,0,1.7,6.46l6.12,6.84a7.35,7.35,0,0,0,6.22,2.42l33-3.34A7.38,7.38,0,0,0,285.35,224.28ZM130.2,143.53l13.37,30.35a7.38,7.38,0,0,0,5.18,4.22l9,1.94a7.35,7.35,0,0,0,6.46-1.7l26.47-23.65a7.35,7.35,0,0,0,2.41-6.22l-.92-9.13a7.34,7.34,0,0,0-3.62-5.61L159.85,117a7.36,7.36,0,0,0-8.6.87L132,135.08A7.34,7.34,0,0,0,130.2,143.53Zm149.36,93-30.69,3.1a7.36,7.36,0,0,0-6.45,5.76l-6.53,30.15a7.34,7.34,0,0,0,3.49,7.91l6,3.51a7.35,7.35,0,0,0,7.21.12,108.11,108.11,0,0,0,36.52-32.71,7.34,7.34,0,0,0,.69-7.16L287,240.87A7.34,7.34,0,0,0,279.56,236.52Zm-102.93,57.4,5.2-4.65a7.34,7.34,0,0,0,1.83-8.45l-12.44-28.23a7.36,7.36,0,0,0-7.47-4.35l-30.69,3.11a7.33,7.33,0,0,0-6.44,5.76l-1.47,6.76a7.34,7.34,0,0,0,2.11,6.88,108.15,108.15,0,0,0,42.34,24.73A7.36,7.36,0,0,0,176.63,293.92ZM220.71,90.48A7.33,7.33,0,0,0,215,86.15a107.84,107.84,0,0,0-48.79,4.94,7.35,7.35,0,0,0-4.75,5.39L160,103.32a7.36,7.36,0,0,0,3.49,7.91l26.65,15.52a7.36,7.36,0,0,0,8.6-.87l23-20.55a7.34,7.34,0,0,0,1.83-8.45Zm84.58,97.59-6.05,5.41a2,2,0,0,0-.62,1.06l-8,37a2,2,0,0,0,.13,1.22l3.26,7.4a2,2,0,0,0,3.61.09,106.87,106.87,0,0,0,11-50.76A2,2,0,0,0,305.29,188.07ZM237.87,290.81l-7-4.09a2,2,0,0,0-1.2-.26L192,290.27a2,2,0,0,0-1.13.5l-6.06,5.42a2,2,0,0,0,1,3.46,108,108,0,0,0,51.73-5.24A2,2,0,0,0,237.87,290.81ZM121.24,248.69,106,214.05a2,2,0,0,0-.82-.92l-7-4.09a2,2,0,0,0-3,2.06,106.9,106.9,0,0,0,21,47.52,2,2,0,0,0,3.52-.81l1.71-7.9A2,2,0,0,0,121.24,248.69ZM228.82,92.31l3.28,7.42a1.93,1.93,0,0,0,.82.92l32.71,19.06a2,2,0,0,0,1.2.26l8-.81a2,2,0,0,0,1.2-3.41A108,108,0,0,0,231.2,89.59,2,2,0,0,0,228.82,92.31ZM123.29,134.12l28.23-25.23a2,2,0,0,0,.62-1.06l1.72-7.93A2,2,0,0,0,151,97.71a108.12,108.12,0,0,0-38.68,34.61,2,2,0,0,0,1.86,3.1l8-.81A1.94,1.94,0,0,0,123.29,134.12ZM89.21,211.69C71,228.75,38.68,253.89,0,273.7c36.4-30.29,72.23-58.63,87.6-81.63C87.64,199.69,87.89,206.87,89.21,211.69Zm3.46,14.61c-16.61,18-52,45.33-87.67,71.4,36.33-23.76,72.82-38.57,95.71-52A113.32,113.32,0,0,1,92.67,226.3Zm13.48,28.62c-23.09,13.13-54.28,37.83-93.34,57.86,41.56-18.64,84.12-36.41,107.63-41.31C115.87,265.6,109.62,259.75,106.15,254.92Zm24.64,26.8c-23.7,7.12-62.44,23-99.61,47.28,43.64-16.37,88.69-33.13,117.9-35.49A115.43,115.43,0,0,1,130.79,281.72Z"/></svg>