<svg xmlns="http://www.w3.org/2000/svg" viewBox="0 0 332 314"><title>exterminator</title><path d="M321.29,200l-40.18-22.46c-7-3.7-21.45,8.66-35.6,29.14l-12.1-7.21c15.66-25.3,32.09-52.25,32.09-94C265.5,47.23,221,0,166,0S66.5,47.23,66.5,105.5c0,41.71,16.43,68.66,32.09,94l-12.1,7.21c-14.15-20.48-28.63-32.84-35.6-29.14L10.71,200c-15.37,8.3-14,40.1,3,71s43.25,49.27,58.62,41l40.29-22.53c7-3.69,4.38-22.26-5.27-45l11.88-7.08a98.4,98.4,0,0,1,7.31,37.11c0,10.22,17.68,18.5,39.5,18.5s39.5-8.28,39.5-18.5a98.4,98.4,0,0,1,7.31-37.11l11.88,7.08c-9.65,22.75-12.23,41.32-5.27,45L259.71,312c15.37,8.29,41.61-10.05,58.62-41S336.66,208.29,321.29,200ZM91.93,285.05,70,297.58c-12.23,6.61-33.13-8-46.66-32.62S8.76,215,21,208.42L42.7,197.67a2.34,2.34,0,0,1,3.39,2.2c-.48,9.95,4.72,26.78,14.34,44.25,10.2,18.52,22.5,32.54,31.39,36.79A2.34,2.34,0,0,1,91.93,285.05ZM142,238.93l-4.28,2.81a5.23,5.23,0,0,1-7.35-1.67L100,189.82a5.23,5.23,0,0,1,1.6-7.08l4.29-2.81a5.22,5.22,0,0,1,7.34,1.66l30.38,50.26A5.24,5.24,0,0,1,142,238.93Zm-36.14-91.49c-17.67,0-27.56-21.75-27.56-43.11s13.33-34.22,31-34.22,36.11,6.65,36.11,28S123.56,147.44,105.89,147.44ZM166,232a20,20,0,1,1,20-20A20,20,0,0,1,166,232ZM222.67,70.11c17.67,0,31,12.87,31,34.22s-9.89,43.11-27.56,43.11-39.55-28-39.55-49.33S205,70.11,222.67,70.11ZM232,189.82,201.6,240.07a5.23,5.23,0,0,1-7.35,1.67L190,238.93a5.24,5.24,0,0,1-1.61-7.08l30.38-50.26a5.22,5.22,0,0,1,7.34-1.66l4.29,2.81A5.23,5.23,0,0,1,232,189.82ZM308.65,265c-13.53,24.62-34.43,39.23-46.66,32.62l-21.92-12.53a2.34,2.34,0,0,1,.11-4.14c8.89-4.25,21.19-18.27,31.39-36.79,9.62-17.47,14.82-34.3,14.34-44.25a2.34,2.34,0,0,1,3.39-2.2L311,208.42C323.24,215,322.19,240.34,308.65,265Z"/></svg>