<svg xmlns="http://www.w3.org/2000/svg" viewBox="0 0 197.19 323.04"><title>first-touch</title><path d="M186.08,250.6c-8.89-27.78.88-109.72,3.11-127.56,3-23.76-32.59-28.2-35.56-4.44l-3.55,29.33L90.52,14.6c-14.13-30.54-62.13-8.32-48,22.22L78.08,118.6c-19.46-.35-32.68,6.32-32,30.22-14.51.76-25.55,6.56-24.89,32.89-8-1.78-26.61,13.21-19.67,31.22C7,227,45.32,274.33,57.86,280.49,83.86,293.26,95,323,95,323l102.22-47.11S189.71,261.94,186.08,250.6ZM110.5,231l-4,1.76a2.2,2.2,0,0,0-1.15,2.89l1.91,4.39a2.21,2.21,0,0,1-1.15,2.9l-7.78,3.37a2.2,2.2,0,0,1-2.9-1.14l-1.9-4.39a2.2,2.2,0,0,0-2.9-1.14l-8,3.46A2.2,2.2,0,0,0,81.45,246L83.21,250a2.21,2.21,0,0,1-1.15,2.9l-7.78,3.37a2.2,2.2,0,0,1-2.9-1.14l-1.75-4a2.21,2.21,0,0,0-2.9-1.15l-4.39,1.91a2.2,2.2,0,0,1-2.89-1.15l-3.38-7.78a2.21,2.21,0,0,1,1.15-2.9l4.38-1.9a2.21,2.21,0,0,0,1.15-2.9l-3.46-8a2.21,2.21,0,0,0-2.9-1.15l-4,1.76a2.2,2.2,0,0,1-2.89-1.15l-3.38-7.78a2.21,2.21,0,0,1,1.15-2.9l4.05-1.76a2.2,2.2,0,0,0,1.14-2.89L50.51,207a2.19,2.19,0,0,1,1.14-2.89l7.79-3.38a2.2,2.2,0,0,1,2.89,1.15l1.91,4.38a2.2,2.2,0,0,0,2.89,1.15l8-3.46a2.2,2.2,0,0,0,1.14-2.9L74.51,197a2.19,2.19,0,0,1,1.14-2.89l7.79-3.38a2.2,2.2,0,0,1,2.89,1.15l1.76,4A2.2,2.2,0,0,0,91,197l4.39-1.9a2.2,2.2,0,0,1,2.9,1.14l3.37,7.79A2.19,2.19,0,0,1,100.5,207l-4.39,1.91A2.19,2.19,0,0,0,95,211.76l3.46,8a2.19,2.19,0,0,0,2.89,1.14l4.05-1.75a2.2,2.2,0,0,1,2.9,1.14l3.37,7.79A2.19,2.19,0,0,1,110.5,231Zm48.84,1.79L142,241.11a3,3,0,0,1-4.07-1.53l-25.64-60.71a3,3,0,0,0-4.1-1.52l-12.34,6.13a3,3,0,0,1-4-1.35L85.5,169.35a3,3,0,0,1,1.38-4c10.1-4.71,13.9-12.08,11.55-20.5a3,3,0,0,1,1.72-3.52l15.33-6.54a3,3,0,0,1,3.91,1.54l41.39,92.54A3,3,0,0,1,159.34,232.75ZM86.6,224.87a2.2,2.2,0,0,1-1.14,2.9l-8,3.46a2.21,2.21,0,0,1-2.9-1.14l-3.46-8a2.21,2.21,0,0,1,1.15-2.9l8-3.46a2.21,2.21,0,0,1,2.9,1.15Z"/></svg>