<svg xmlns="http://www.w3.org/2000/svg" viewBox="0 0 351.56 340"><title>goal</title><path d="M351.56,254.91,278,183.83l29.07-24.51-28.72-25.21,33.27-48-58.83,5.25L276.62,0,210.79,65.13l-25.21-35L160.37,64.78,97.34,7l21,85.09-38.86,3.5,14,38.17L0,159.32l91,25.21L68.28,226.9l48.67.7L80.54,340l79.83-87.19L185.58,339l25.21-86.49,43.77,25.91-2.45-51.47Zm-182-69h29.18a6,6,0,0,1,4.81,2.45l4.47,6.16a5.94,5.94,0,0,1,.85,5.32l-8.44,26a6,6,0,0,1-5.65,4.1H173.51a6,6,0,0,1-5.65-4.1l-8.43-26a5.91,5.91,0,0,1,.84-5.32l4.47-6.16A6,6,0,0,1,169.55,185.9ZM158,151.09a4.43,4.43,0,0,1,1.61-5l21.9-15.91a4.44,4.44,0,0,1,5.22,0l21.9,15.91a4.43,4.43,0,0,1,1.61,5l-8.36,25.74a4.44,4.44,0,0,1-4.23,3.07H170.61a4.45,4.45,0,0,1-4.23-3.07Zm49.62,34.37a5.94,5.94,0,0,1-.85-5.32l8.86-27.25a5.93,5.93,0,0,1,3.81-3.81l7-2.29a5.94,5.94,0,0,1,5.32.85l21.66,15.73a6,6,0,0,1,2.16,6.64l-6.43,19.79a5.93,5.93,0,0,1-5.64,4.1H216.79a5.93,5.93,0,0,1-4.8-2.45Zm50.11,18.08a1.61,1.61,0,0,1-2.89-.36l-2-6.2a1.7,1.7,0,0,1,0-1l9.44-29.06a1.62,1.62,0,0,1,.59-.8l5.3-3.85a1.61,1.61,0,0,1,2.55,1.41A86.15,86.15,0,0,1,257.75,203.54Zm-4.44-93.64a5.94,5.94,0,0,1,5.07,2.85,86.13,86.13,0,0,1,12.25,37.58,6,6,0,0,1-2.43,5.31L263.64,159a5.94,5.94,0,0,1-7,0l-20.14-14.63a5.93,5.93,0,0,1-2.16-6.64L242.05,114a6,6,0,0,1,5.65-4.1ZM216.69,77.61a87.09,87.09,0,0,1,33.86,24.64,1.61,1.61,0,0,1-1.23,2.65h-6.5a1.58,1.58,0,0,1-.94-.31l-24.72-18a1.62,1.62,0,0,1-.59-.8l-2-6.23A1.61,1.61,0,0,1,216.69,77.61Zm.62,15.79,16.83,12.23a5.94,5.94,0,0,1,2.16,6.63L228,137.72a5.93,5.93,0,0,1-3.81,3.82l-7,2.28a5.91,5.91,0,0,1-5.32-.84l-23.18-16.84a5.92,5.92,0,0,1-2.45-4.8v-7.41a5.93,5.93,0,0,1,2.45-4.8L210.33,93.4A5.91,5.91,0,0,1,217.31,93.4Zm-59-11L160.1,77a5.89,5.89,0,0,1,4.25-3.94,87,87,0,0,1,39.58,0A5.92,5.92,0,0,1,208.19,77l1.74,5.37A5.94,5.94,0,0,1,207.77,89l-20.14,14.64a5.94,5.94,0,0,1-7,0L160.51,89A5.94,5.94,0,0,1,158.35,82.39Zm20.43,26.74a6,6,0,0,1,2.44,4.8v7.41a5.94,5.94,0,0,1-2.44,4.8L155.6,143a5.91,5.91,0,0,1-5.32.84l-7.05-2.28a6,6,0,0,1-3.81-3.82l-8.27-25.46a5.92,5.92,0,0,1,2.15-6.63L150.14,93.4a5.9,5.9,0,0,1,7,0Zm-61-6.88a87.09,87.09,0,0,1,33.86-24.64,1.61,1.61,0,0,1,2.14,2l-2,6.23a1.62,1.62,0,0,1-.59.8l-24.72,18a1.58,1.58,0,0,1-.94.31H119A1.61,1.61,0,0,1,117.73,102.25ZM97.66,150.33a86.25,86.25,0,0,1,12.24-37.58A5.94,5.94,0,0,1,115,109.9h5.61a6,6,0,0,1,5.65,4.1l7.69,23.68a5.93,5.93,0,0,1-2.15,6.64L111.62,159a5.91,5.91,0,0,1-7,0l-4.55-3.31A5.92,5.92,0,0,1,97.66,150.33ZM115.44,197l-2,6.2a1.61,1.61,0,0,1-2.89.36,86.15,86.15,0,0,1-13-39.86,1.61,1.61,0,0,1,2.55-1.41l5.3,3.85a1.62,1.62,0,0,1,.59.8L115.44,196A1.7,1.7,0,0,1,115.44,197Zm-2.8-27a6,6,0,0,1,2.16-6.64l21.66-15.73a5.94,5.94,0,0,1,5.32-.85l7,2.29a5.93,5.93,0,0,1,3.81,3.81l8.86,27.25a5.94,5.94,0,0,1-.85,5.32l-4.35,6a5.93,5.93,0,0,1-4.8,2.45H124.72a5.94,5.94,0,0,1-5.65-4.1Zm48.16,63.31-4.56,3.31a5.92,5.92,0,0,1-5.8.66A87.06,87.06,0,0,1,118.5,214a5.94,5.94,0,0,1-1.16-5.72l1.73-5.31a5.94,5.94,0,0,1,5.65-4.1h24.89a5.94,5.94,0,0,1,5.65,4.1L163,226.68A5.93,5.93,0,0,1,160.8,233.32Zm44.32,8.61a86.88,86.88,0,0,1-42,0,1.61,1.61,0,0,1-.56-2.87l5.31-3.85a1.58,1.58,0,0,1,.94-.31h30.56a1.58,1.58,0,0,1,.94.31l5.31,3.85A1.61,1.61,0,0,1,205.12,241.93ZM249.78,214a87.06,87.06,0,0,1-31.94,23.26,5.92,5.92,0,0,1-5.8-.66l-4.56-3.31a5.93,5.93,0,0,1-2.15-6.64L213,203a5.94,5.94,0,0,1,5.65-4.1h24.9a5.93,5.93,0,0,1,5.64,4.1l1.73,5.31A5.94,5.94,0,0,1,249.78,214Z"/></svg>