<svg xmlns="http://www.w3.org/2000/svg" viewBox="0 0 347.25 330.77"><title>high-five</title><path d="M339.28,262.49l-.55.41-.61.31C318,273.47,306.42,286,295.21,298c-15.65,16.84-30.43,32.74-62.95,32.74-18.64,0-37.56-8.86-51.16-23.57a3.32,3.32,0,0,1-.37-4.06c.74-1.11,1.44-2.22,2.11-3.34a3.27,3.27,0,0,1,5.25-.5c11.68,13.08,28.09,21,44.17,21,27.95,0,40-13,55.26-29.39,11.25-12.12,24-25.84,45.64-36.93a8.55,8.55,0,0,0,3.56-6.11,9.63,9.63,0,0,0-2-6.4c-2.7-3.62-7.65-5.62-12.6-1.92l-23.82,17.78a4.89,4.89,0,0,1-4.81.83c-1-.42-2.72-1.61-3.2-5-.18-1.28-.56-3.94,19.36-57.61,9.75-26.25,19.71-52.19,19.81-52.44,1.87-4.87-.83-8.41-4.34-9.76a8,8,0,0,0-5.57-.12,7.29,7.29,0,0,0-4.18,4.47L289,206.34c-1.61,4.2-5.89,5.08-9.28,3.78s-6-4.82-4.37-9l34.93-91c1.85-4.82-.86-8.34-4.36-9.69s-7.88-.54-9.73,4.28l-34.93,91a6.59,6.59,0,0,1-4.06,4,7.74,7.74,0,0,1-9-3.44,6.62,6.62,0,0,1-.33-5.69L277.34,114c1.86-4.87-.84-8.41-4.35-9.76s-7.88-.52-9.75,4.35l-29.41,76.61a6.64,6.64,0,0,1-7.39,4.36,6.71,6.71,0,0,1-2.82-1.08,6.64,6.64,0,0,1-2.59-8.19l21-54.79c1.83-4.78-.89-8.28-4.39-9.62s-7.87-.57-9.71,4.21L185.88,230.69a3.3,3.3,0,0,1-6.16,0l-2.09-5.49a3.26,3.26,0,0,1,0-2.34L218.16,116.3a17.38,17.38,0,0,1,16.43-11.54,19.07,19.07,0,0,1,15.55,8.06c.05.07.1.14.14.21l3.17-8.25A17.48,17.48,0,0,1,270,93.13a19,19,0,0,1,15.47,8c.2.29.39.59.57.89l.42-1.11a17.45,17.45,0,0,1,16.47-11.59A19,19,0,0,1,318.4,97.4a17.56,17.56,0,0,1,1.7,16.47l-3.56,9.29a17.66,17.66,0,0,1,5.57-.89,19,19,0,0,1,15.46,8,17.64,17.64,0,0,1,1.71,16.55C326.08,181.17,312,219,305.06,239.18l10.8-8.06a19.51,19.51,0,0,1,11.7-4.05c8.26,0,15.94,5.76,18.67,14C348.9,249.09,346.23,257.3,339.28,262.49ZM5.16,257.83C60.6,286.13,62.09,330.77,117,330.77c40.59,0,74.15-42.41,64.81-71.11L124.12,108.12c-5.14-13.38-25.5-5.57-20.36,7.82l23,59.93c2.31,6-6.75,9.52-9.07,3.48L85.53,95.54C80.32,82,60,89.78,65.17,103.35l32.17,83.82c2.32,6-7.35,9.75-9.67,3.71L49.46,91.34c-5.18-13.48-25.54-5.67-20.36,7.82L67.3,198.7c2.32,6-7.66,9.87-10,3.83L28.49,127.42c-5.22-13.58-25.58-5.76-20.37,7.81,0,0,43.53,113.24,42.71,119.07-.49,3.46-2.47,4.37-4.56,2.81L20.22,237.66C6.92,227.74-8.13,247.9,5.16,257.83ZM140,93.37l14.23,14.49a3.25,3.25,0,0,1,.9,2.76l-3,20.09a1.07,1.07,0,0,0,1.54,1.12l18.18-9.06a3.22,3.22,0,0,1,2.9,0l18.18,9.06a1.07,1.07,0,0,0,1.54-1.12l-3-20.09a3.25,3.25,0,0,1,.9-2.76l14.23-14.49a1.07,1.07,0,0,0-.58-1.81l-20-3.35a3.25,3.25,0,0,1-2.35-1.71l-9.38-18a1.08,1.08,0,0,0-1.9,0L163,86.5a3.25,3.25,0,0,1-2.35,1.71l-20,3.35A1.07,1.07,0,0,0,140,93.37ZM129.59,71.7,106.92,55.34c-8.65-6.24-18,6.73-9.36,13l22.66,16.37C128.83,90.89,138.2,77.92,129.59,71.7ZM79.89,55.56,75.52,52.4c-8.57-6.18.8-19.15,9.36-13l4.38,3.16C97.91,48.83,88.54,61.81,79.89,55.56Zm79.21,1.95L150,31.08c-3.48-10.09-18.6-4.88-15.13,5.21L144,62.72C147.43,72.76,162.56,67.55,159.1,57.51ZM127.77,15.69,126,10.58C122.58.6,137.7-4.61,141.14,5.37l1.76,5.11C146.38,20.56,131.25,25.78,127.77,15.69Zm94.74,69,22.67-16.37c8.65-6.24-.72-19.21-9.36-13L213.15,71.7C204.54,77.92,213.91,90.89,222.51,84.68Zm31-42.09,4.38-3.16c8.56-6.18,17.93,6.79,9.36,13l-4.38,3.16C254.2,61.81,244.83,48.83,253.48,42.59ZM198.76,62.72l9.11-26.43c3.47-10.09-11.65-15.3-15.13-5.21l-9.1,26.43C180.18,67.55,195.31,72.76,198.76,62.72Zm1.08-52.24,1.76-5.11c3.44-10,18.56-4.77,15.12,5.21L215,15.69C211.49,25.78,196.36,20.56,199.84,10.48Z"/></svg>