<svg xmlns="http://www.w3.org/2000/svg" viewBox="0 0 300.68 275.47"><title>juggle</title><path d="M38.56,227.3c7-19.48,26.35-30.26,43.16-24.09s24.75,27,17.72,46.43S73.09,279.9,56.28,273.73,31.53,246.77,38.56,227.3ZM223.1,273.41c11.11,4,24.1-3.54,29-16.77s-.1-27.15-11.21-31.11-24.1,3.55-29,16.77S212,269.45,223.1,273.41Zm77.45-40.59c-1.21,4.36-2.09,8.17-3,11.23a10.2,10.2,0,0,1-10.44,7.11L269.33,250a7.44,7.44,0,0,1-7-6.8,32.23,32.23,0,0,0-2.91-11.34,27.08,27.08,0,0,0-15.39-14.32,26.21,26.21,0,0,0-8.84-1.52c-13,0-25.23,9.26-30.35,23-.14.37-.27.74-.39,1.1a7.46,7.46,0,0,1-7.58,5l-79.51-5.28a7.54,7.54,0,0,1-7-7.22c-.73-16.85-10.21-31.86-25.44-37.45A36.28,36.28,0,0,0,72.41,193c-17.75,0-34.18,12.5-40.89,31.11-.48,1.31-.89,2.63-1.25,3.94a7.5,7.5,0,0,1-14,1.4C6.52,210,8.65,184.26,17.59,175.11c3.94-4,4.45-16.67,2.22-17.78-7.45-3.72-16.83-3-19.55-11.16-1.42-4.28,3.33-7.84,6.05-5C20.81,156,45.16,145,40.26,156.33c-1.5,3.47-5.5.78-7.56,3.23s-2.05,8.07.45,8.44c22,3.25,49.33-23.33,75.62-22.72,75.5,1.75,74.52,23.05,94.15,40.28,9.45,8.28,53,18.63,68.09,24.41,13.7,5.24,16.67,21.92,15.17,28.72a1.25,1.25,0,0,0,1.6,1.46c3-1,3.94-4.43,5.59-9.38a3.84,3.84,0,0,1,3.88-2.66A3.74,3.74,0,0,1,300.55,232.82ZM121.81,158.33c-21.46,1.1-26.9,9-28.25,13.52a2.62,2.62,0,0,0,2.32,3.36c35.32,2.75,55.08,6.5,76.66,12.37a4.27,4.27,0,0,0,5.18-2.84l.76-2.41C181.3,176.46,153.4,156.72,121.81,158.33Zm148,3.15h0c4-38.61-3.45-57.33-15.69-72.19,9.74,18.95,14.36,42.46,7.17,62.35l.05.06a20.91,20.91,0,0,0-5-2.23h0c3.33-49-17.75-70.86-42.33-84.06,17,14.93,37,37.35,30.55,84.06h0a21,21,0,1,0,25.21,12ZM68.48,76a22,22,0,1,0-41.94,9.3C23,102,24.17,112.88,26.48,125.67c1.73-9,2.3-22.35,8.35-31v0a21.25,21.25,0,0,0,3.66,1.84h0c-5.85,11.51-3.77,28.73,0,41.51,1.22-16,2.69-33.61,10.73-40.17A22,22,0,0,0,68.48,76ZM171,0a22.36,22.36,0,0,0-10.89,2.81c-32.21-1.55-50.3,7.8-68.28,19.69,21.94-9.24,44.66-12,59.33-10.62a22.31,22.31,0,0,0-1.9,4.81h0C114.06,18.88,96.47,26.92,78.48,43c25.19-12,41.66-21.77,70.92-14.13A22.5,22.5,0,1,0,171,0Z"/></svg>