<svg xmlns="http://www.w3.org/2000/svg" viewBox="0 0 358.14 362.65"><title>low-five</title><path d="M120.11,64,97.44,47.67c-8.65-6.24-18,6.73-9.36,13L110.74,77C119.35,83.22,128.72,70.25,120.11,64ZM70.41,47.9,66,44.74c-8.57-6.19.8-19.16,9.36-13l4.38,3.16C88.43,41.17,79.06,54.14,70.41,47.9Zm91.21,15L152.52,34c-3.48-11-18.6-5.33-15.13,5.69l9.1,28.89C150,79.52,165.08,73.82,161.62,62.85Zm-31.33-45.7-1.75-5.58C125.1.65,140.22-5,143.66,5.87l1.76,5.58C148.9,22.48,133.77,28.17,130.29,17.15ZM240,77,262.7,60.65c8.65-6.25-.72-19.22-9.36-13L230.67,64C222.06,70.25,231.43,83.22,240,77Zm31-42.09,4.38-3.16c8.56-6.18,17.93,6.79,9.36,13l-4.38,3.16C271.72,54.14,262.35,41.17,271,34.92ZM204.28,68.55l9.11-28.89c3.47-11-11.65-16.72-15.13-5.69l-9.1,28.88C185.7,73.82,200.83,79.52,204.28,68.55Zm1.08-57.1,1.76-5.58C210.56-5,225.68.65,222.24,11.57l-1.76,5.58C217,28.17,201.88,22.48,205.36,11.45ZM110.74,285.64,88.08,302c-8.65,6.24.71,19.21,9.36,13l22.67-16.36C128.72,292.4,119.35,279.43,110.74,285.64Zm-31,42.09-4.38,3.16c-8.56,6.18-17.93-6.79-9.36-13l4.37-3.16C79.06,308.51,88.43,321.49,79.78,327.73Zm66.71-33.63L137.39,323c-3.47,11,11.65,16.72,15.13,5.7l9.1-28.89C165.08,288.83,150,283.13,146.49,294.1Zm-1.07,57.1-1.76,5.58c-3.44,10.91-18.56,5.22-15.12-5.7l1.75-5.58C133.77,334.48,148.9,340.18,145.42,351.2Zm85.25-52.58L253.34,315c8.64,6.24,18-6.73,9.36-13L240,285.64C231.43,279.43,222.06,292.4,230.67,298.62Zm49.69,16.14,4.38,3.16c8.57,6.18-.8,19.15-9.36,13L271,327.73C262.35,321.49,271.72,308.51,280.36,314.76Zm-91.2-15,9.1,28.89c3.48,11,18.6,5.32,15.13-5.7l-9.11-28.89C200.83,283.13,185.7,288.83,189.16,299.8Zm31.32,45.7,1.76,5.58c3.44,10.92-11.68,16.61-15.12,5.7l-1.76-5.58C201.88,340.18,217,334.48,220.48,345.5Zm-77-173,12.93,13.17a2.94,2.94,0,0,1,.81,2.51l-2.72,18.25a1,1,0,0,0,1.39,1l16.52-8.23a3,3,0,0,1,2.64,0l16.52,8.23a1,1,0,0,0,1.39-1l-2.72-18.25a2.94,2.94,0,0,1,.81-2.51L204,172.45a1,1,0,0,0-.54-1.64l-18.2-3.05a2.94,2.94,0,0,1-2.13-1.55l-8.53-16.37a1,1,0,0,0-1.72,0l-8.53,16.37a2.9,2.9,0,0,1-2.13,1.55L144,170.81A1,1,0,0,0,143.47,172.45ZM87,206.68c11,12.54,56.51,50,70.72,49.54,12.89-.44,16-10.78,25.91-11,13-.29,60.31,1.56,60.31,1.56,21.93,0,21.22,28,0,29.33s-116.44,3.11-126.22-.33c-58.53-20.62-43.11-76.56-93.33-76.11-34.69.3-32.45-69.34,7-69.34,61.44,0,91.69,22,95.62,46.08,4.82,29.59,27.49,36.59,39.71,47,16.47,14.08,4.41,33.45-17.24,25.34-19-7.11-50.25-38.8-57.69-46.52C87.66,197.76,82.87,202.18,87,206.68Zm234.72,35.08c-68.1,0-96.6-26-100.56-50.27-3.36-20.59-16.3-29.12-27.73-36.65a105.28,105.28,0,0,1-10.3-7.39c-7.19-6.15-10.46-13.9-9.2-21a27.5,27.5,0,0,1-4.34.43c-12.84.3-57.55-1.44-60.53-1.55-14.09,0-20.8-9.58-21.07-18.43-.3-9.73,6.78-20,20.87-20.9,16.74-1,116.79-3.41,128.18.61,30.37,10.7,42.26,30.87,51.81,47.08,9.91,16.81,17.11,29,39.82,28.75,10.11-.08,18.58,4.84,23.88,13.88,7.73,13.22,7.38,33.23-.84,47.58C345.12,235.41,334.47,241.76,321.74,241.76ZM193.91,121.4c-4.55,0-7.73,1.83-9.18,4.29-2.37,4-.44,9.58,4.92,14.16a98.16,98.16,0,0,0,9.3,6.64c12.49,8.23,28,18.48,32.1,43.39,3.15,19.32,28.79,41.88,90.69,41.88,11.52,0,17.95-7,21.31-12.85,6.45-11.24,6.83-27.39.88-37.55-3.5-6-8.62-9-15.15-8.93-28.53.29-38.24-16.23-48.52-33.67-9.64-16.35-19.59-33.24-46.52-42.73-8.29-2.88-99.89-1.54-124.26-.06-8.09.5-11.62,5.85-11.48,10.62.13,4.22,3.14,8.73,11.18,8.73h.19c.48,0,47.32,1.84,60,1.55,3.57-.08,6.17-1.11,9.46-2.43,4.49-1.79,9.58-3.82,17.71-3.57,18.06.58,56.07,36.86,64.28,46.2.56.61,1.12,1.22,1.66,1.79.93.95,1.75,1.79,2.43,2.51l.08.08c.55.6,1.05,1.14,1.48,1.65h0c1.38,1.65,2,3,1.32,5.1L267,171l-2.82.63c-2.12.48-3.37-.17-4.94-1.68h0c-.51-.49-1.05-1.06-1.66-1.72s-1.47-1.56-2.32-2.47C237.75,147.89,215.31,128,201.89,123A22.84,22.84,0,0,0,193.91,121.4Z"/></svg>